<svg width="90" height="90" viewBox="0 0 90 90" fill="none" xmlns="http://www.w3.org/2000/svg">
<g id="Frame" clip-path="url(#clip0_6_4132)">
<path id="Vector" d="M41.073 47.4481C42.7638 47.8003 43.7853 47.5185 44.6659 45.8277C48.5759 38.1839 57.5583 34.6614 65.6601 37.3737C73.7618 40.0861 78.6581 48.1878 77.3548 56.7475C76.1219 64.9197 68.936 71.2602 60.6933 71.4363C51.9223 71.6125 44.4194 65.7299 42.9399 57.2054C42.5524 54.951 42.8695 52.5557 42.8695 50.407C39.1708 48.7514 37.4096 51.5342 34.9086 53.5772C36.2471 53.9295 37.3744 54.0704 38.3959 54.5283C38.9243 54.7397 39.2413 55.4442 39.6288 55.9021C39.0652 56.2191 38.5016 56.7827 37.8675 56.8532C37.1982 56.9236 36.4233 56.7123 35.8244 56.3953C32.9008 54.8453 30.118 55.3737 27.3 56.9236C27.3 59.3542 27.3 61.9256 27.3 64.7436C30.9282 64.7436 34.4859 64.7084 38.0436 64.7436C40.7207 64.7788 42.6933 66.6457 42.8342 69.1819C43.0104 72.0704 41.0025 74.2543 38.0788 74.3248C34.5563 74.3952 31.0338 74.3248 27.2648 74.3248C27.2648 75.6281 27.2648 76.8258 27.2648 78.0587C27.2648 80.454 27.3352 82.8845 27.2295 85.2798C27.1239 88.0273 24.9751 90.1056 22.3685 90.0704C19.7971 90.0352 17.7188 88.0626 17.6483 85.3502C17.5426 81.7221 17.6131 78.1291 17.6131 74.2896C15.0064 74.2896 12.5759 74.2896 10.1454 74.2896C8.98296 74.2896 7.78531 74.3248 6.62288 74.2896C3.94578 74.1839 1.93795 72.1408 1.93795 69.5694C1.90273 66.9275 3.981 64.7788 6.72856 64.7436C10.2511 64.6731 13.7736 64.7436 17.437 64.7436C17.437 62.0665 17.437 59.4598 17.437 56.7827C16.4859 56.4657 15.4996 56.1839 14.5133 55.7964C3.87533 51.7455 -2.11293 40.3326 0.669849 29.4129C3.5583 18.2113 14.1963 11.0254 25.6092 12.681C26.6307 12.8219 28.392 12.6105 28.0749 14.3718C27.7931 16.0273 26.3137 15.2172 25.2922 15.0763C14.4428 13.632 4.72073 20.7475 2.74813 31.5968C0.916424 41.8121 7.60918 51.7455 18.0358 54.1761C19.6209 54.5283 20.1845 55.2328 20.1141 56.818C20.0084 59.5655 20.0436 62.3483 20.1141 65.0958C20.1493 66.5753 19.5857 67.2093 18.0358 67.1741C14.5133 67.1037 10.9908 67.1389 7.46828 67.1741C5.53091 67.1741 4.4037 68.09 4.43893 69.5342C4.47415 70.9784 5.53091 71.7886 7.39783 71.7886C10.8499 71.7886 14.3372 71.7886 17.7892 71.7886C19.8323 71.7886 20.1141 72.0704 20.1141 74.1487C20.1141 77.4246 20.1141 80.7358 20.1141 84.0117C20.1141 86.3718 20.8538 87.4637 22.4037 87.499C23.9536 87.499 24.799 86.3365 24.799 84.0821C24.799 80.6653 24.8342 77.2837 24.7638 73.8669C24.7286 72.317 25.3626 71.7534 26.8421 71.7886C30.3646 71.8238 33.8871 71.8238 37.4096 71.7886C39.4174 71.7886 40.4389 70.9432 40.3685 69.3933C40.3333 67.9138 39.347 67.1389 37.4096 67.1389C33.8871 67.1389 30.3646 67.1037 26.8421 67.1389C25.3626 67.1741 24.6933 66.6457 24.7286 65.0958C24.799 62.2074 24.799 59.3542 24.7286 56.4657C24.6933 55.0567 25.2569 54.5283 26.5603 54.2113C35.5426 52.0273 41.1787 45.6516 42.2354 36.5283C42.6229 33.0763 41.9184 29.7651 40.5446 26.5596C40.4037 26.2426 40.0867 25.8904 40.1219 25.6086C40.1924 24.9393 40.4742 24.3052 40.6503 23.6712C41.2139 23.953 42.0593 24.0939 42.2706 24.5518C44.2432 28.3209 45.0886 32.3718 44.7012 36.634C44.3841 40.1213 43.3274 43.3972 41.4957 46.4266C41.3548 46.7788 41.2491 47.0958 41.073 47.4481ZM59.9888 38.9588C51.7109 38.9588 44.983 45.7221 45.0182 53.9647C45.0182 62.2426 51.7462 68.9354 60.0241 68.9706C68.3724 68.9706 75.1708 62.1722 75.1004 53.859C75.0652 45.6164 68.3019 38.9588 59.9888 38.9588Z" fill="#30B09B"/>
<path id="Vector_2" d="M86.7946 8.66498C79.1156 6.62193 71.5422 4.57887 63.9336 2.57105C62.5246 2.2188 61.4678 2.85285 61.1156 4.26185C60.7281 5.77653 61.5383 6.76283 62.9825 7.1503C66.6459 8.17183 70.3445 9.08768 74.0079 10.1444C74.7477 10.3558 75.3465 11.0251 76.0158 11.5182C75.5226 12.0818 75.0999 12.8568 74.4659 13.209C69.4991 16.1327 64.4972 18.9507 59.5657 21.8744C58.2624 22.6493 57.4522 22.5084 56.4306 21.3812C49.6674 13.984 38.7124 12.7863 30.505 18.4223C22.3328 24.0231 19.5852 34.802 23.9884 43.7139C24.1293 43.9605 24.4111 44.2423 24.3759 44.4889C24.3054 45.1581 24.1293 45.7922 24.0236 46.4615C23.4248 46.1797 22.4385 46.0388 22.2623 45.5808C21.2408 42.798 19.9375 39.98 19.6557 37.0916C18.6694 27.2286 23.7066 18.6337 32.3367 14.5476C40.8612 10.5319 50.5481 12.2227 57.6987 19.0211C57.9101 19.2325 58.1215 19.4086 58.4033 19.6904C62.7359 17.1894 66.9982 14.7237 71.6126 12.0466C68.2663 11.1307 65.2721 10.3558 62.3132 9.51038C60.0236 8.87633 58.7203 7.2912 58.5794 5.1777C58.4033 1.90177 61.2213 -0.634434 64.4267 0.210967C72.4228 2.25402 80.3837 4.4732 88.3798 6.5867C89.5774 6.90373 89.8944 7.573 89.6126 8.66498C87.4639 16.6963 85.3504 24.7628 83.096 32.7589C82.3915 35.3303 79.7144 36.5632 77.1782 35.8587C74.7477 35.1542 73.2682 32.618 73.9023 30.0114C74.5715 27.3343 75.3113 24.6924 76.0158 22.0153C76.1215 21.6278 76.1567 21.2403 76.2623 20.5358C71.9297 23.0368 67.8083 25.3969 63.7575 27.7922C63.5109 27.9331 63.37 28.5671 63.4404 28.9546C63.5461 29.9409 63.9336 30.9272 63.8984 31.8783C63.8984 32.3362 63.3348 33.0055 62.8768 33.1816C62.595 33.2873 61.7849 32.7237 61.644 32.301C61.1508 30.8568 60.7633 29.3773 60.552 27.8979C60.4815 27.4399 60.9042 26.6298 61.3622 26.348C66.7516 23.1425 72.2115 20.0074 77.6714 16.9429C78.0941 16.6963 78.9395 16.7315 79.2565 17.0133C79.5735 17.2951 79.6792 18.0701 79.5383 18.5632C78.552 22.438 77.4952 26.2775 76.5089 30.117C76.0862 31.7726 76.6498 33.0407 77.9532 33.393C79.3622 33.7804 80.5246 33.1464 80.9473 31.4908C82.9551 24.1288 84.8925 16.7667 86.8651 9.40471C86.8299 9.22858 86.7946 9.05245 86.7946 8.66498Z" fill="#30B09B"/>
<path id="Vector_3" d="M7.15039 34.838C7.15039 27.5112 12.2932 21.2412 19.5144 19.8322C20.4302 19.656 21.3813 19.4447 21.6631 20.6423C21.9449 21.84 20.9938 22.0161 20.078 22.2275C10.532 24.4819 6.48111 34.9437 12.1876 42.5171C16.0271 47.5895 23.0017 49.1042 28.5672 46.0396C34.168 42.9398 36.6338 36.2823 34.3794 30.294C34.2032 29.8713 33.8862 29.4134 33.8862 28.9907C33.8862 28.3918 34.1328 27.7578 34.2737 27.159C34.8725 27.4408 35.894 27.5817 36.0349 28.0396C36.7042 30.3292 37.6201 32.6541 37.6201 34.9789C37.6905 43.3977 30.7159 50.1257 22.3324 50.0905C13.9136 50.02 7.15039 43.2568 7.15039 34.838Z" fill="#30B09B"/>
<path id="Vector_4" d="M41.8122 19.585C49.0333 19.585 55.1977 24.587 56.7476 31.632C56.7476 31.7025 56.7828 31.7377 56.7828 31.8081C56.7828 32.8297 57.593 34.3091 56.0431 34.6614C54.3875 35.0136 54.5988 33.4285 54.3875 32.3717C53.2251 27.3698 50.2309 23.9529 45.2994 22.5439C40.2975 21.1349 35.8239 22.3678 32.3366 26.2426C28.8493 30.1173 28.1448 34.6261 29.9061 39.5224C30.047 39.9451 30.4345 40.3678 30.4697 40.7905C30.4697 41.495 30.2583 42.1995 30.1527 42.904C29.5186 42.5518 28.6028 42.3404 28.2857 41.812C22.7554 31.9843 30.3288 19.5498 41.8122 19.585Z" fill="#30B09B"/>
<path id="Vector_5" d="M55.6904 58.3675C53.9291 58.3675 52.4144 58.3323 50.8998 58.3675C49.6669 58.4028 49.0328 57.9096 49.0681 56.6063C49.1033 54.845 49.1033 53.0838 49.0681 51.3225C49.0328 50.0544 49.5612 49.4908 50.8293 49.526C52.344 49.5613 53.8587 49.526 55.6551 49.526C55.6551 47.9057 55.6904 46.4262 55.6551 44.9116C55.6199 43.5026 56.1483 42.8333 57.5925 42.8685C59.2481 42.939 60.8684 42.939 62.524 42.8685C63.9682 42.8333 64.5318 43.5026 64.4966 44.8763C64.4614 46.3206 64.4966 47.8 64.4966 49.4908C66.1874 49.4908 67.7373 49.526 69.3225 49.4908C70.4849 49.4556 71.0485 49.9487 71.0485 51.1464C71.0133 52.9781 71.0133 54.7746 71.0485 56.6063C71.0837 57.9096 70.4144 58.3675 69.1816 58.3323C67.7373 58.2971 66.2579 58.3323 64.4966 58.3323C64.4966 59.9174 64.4614 61.3969 64.4966 62.9116C64.5318 64.4262 63.8626 65.0603 62.3831 64.9898C60.7275 64.9194 59.1072 64.9546 57.4516 64.9898C56.2187 64.9898 55.6199 64.4615 55.6551 63.1934C55.6904 61.6787 55.6904 60.164 55.6904 58.3675ZM58.1561 62.3832C59.6356 62.3832 60.7628 62.3832 62.0309 62.3832C62.0309 60.7981 62.0661 59.3186 62.0309 57.8744C61.9604 56.4654 62.524 55.8313 64.0035 55.9018C65.5181 55.9722 66.9976 55.9018 68.5123 55.9018C68.5123 54.4928 68.5123 53.3303 68.5123 52.027C66.8919 52.027 65.3772 51.9918 63.8978 52.027C62.6297 52.0622 62.0661 51.5339 62.1013 50.2658C62.1365 48.7159 62.1013 47.1307 62.1013 45.4752C60.7275 45.4752 59.6003 45.4752 58.2266 45.4752C58.2266 46.5319 58.2266 47.5182 58.2266 48.5045C58.2266 52.027 58.2266 52.027 54.8097 52.027C53.7882 52.027 52.7315 52.027 51.7099 52.027C51.7099 53.436 51.7099 54.5984 51.7099 55.9018C53.2951 55.9018 54.8097 55.937 56.3244 55.9018C57.6982 55.8313 58.2618 56.4654 58.2266 57.8039C58.1209 59.2834 58.1561 60.7981 58.1561 62.3832Z" fill="#30B09B"/>
</g>
<defs>
<clipPath id="clip0_6_4132">
<rect width="89.683" height="90" fill="white"/>
</clipPath>
</defs>
</svg>
