<svg width="82" height="90" viewBox="0 0 82 90" fill="none" xmlns="http://www.w3.org/2000/svg">
<g clip-path="url(#clip0_6_4055)">
<path d="M67.8787 46.7146C67.8787 48.9632 67.8787 51.2118 67.8787 53.5166C70.2787 53.8258 72.0575 54.9782 72.8481 57.283C74.0905 60.9931 71.4928 64.4785 67.4552 64.619C65.6763 64.6752 63.9258 64.619 62.0057 64.619C63.3328 68.02 62.6269 70.634 59.6622 72.5453C61.2716 76.649 60.7352 78.7851 57.5163 81.0337C57.6293 81.2867 57.7704 81.5678 57.8834 81.8489C59.7187 85.6715 57.3187 89.8595 53.0834 89.9157C45.0927 90.0281 37.0739 90.0281 29.0833 89.9157C26.175 89.8876 23.6621 88.5103 21.4597 86.6271C19.2856 84.772 16.7727 84.491 14.0903 84.8001C13.5256 86.9644 13.2432 87.1612 10.9279 87.1612C8.04792 87.1612 5.19614 87.1612 2.31613 87.1612C0.678479 87.1612 0.000830311 86.4866 0.000830311 84.8564C-0.0274051 80.6964 0.000830311 76.5085 0.000830311 72.3485C0.000830311 71.421 0.170243 70.5778 1.27142 70.5497C2.51378 70.4935 2.68319 71.421 2.68319 72.3767C2.68319 75.8901 2.68319 79.4035 2.68319 82.9169C2.68319 83.4229 2.68319 83.9288 2.68319 84.491C5.61967 84.491 8.35851 84.491 11.2103 84.491C11.2103 74.2318 11.2103 64.0569 11.2103 53.7976C8.38674 53.7976 5.61967 53.7976 2.68319 53.7976C2.68319 55.456 2.68319 57.0862 2.68319 58.7164C2.68319 60.9088 2.68319 63.1293 2.68319 65.3217C2.68319 66.2773 2.3726 67.0925 1.29966 67.0644C0.254949 67.0362 -0.0274051 66.2211 0.000830311 65.2655C0.0290657 61.3304 0.000830312 57.3954 0.0290657 53.4604C0.0290657 51.802 0.67848 51.1837 2.34437 51.1837C5.22438 51.1555 8.07615 51.1837 10.9562 51.1837C13.2997 51.1837 13.4973 51.3242 14.1468 53.5166C17.6197 53.882 21.008 53.4604 24.0574 51.7177C26.7962 50.1718 27.6715 47.4173 28.2362 44.5503C28.3774 43.8195 28.4621 43.0606 28.575 42.3298C29.168 38.7321 32.7256 37.2705 35.5492 39.6315C39.6998 43.0887 40.8292 47.614 39.7845 52.7858C39.7563 52.9544 39.6716 53.1512 39.5868 53.4604C45.6857 53.4604 51.6998 53.4604 57.8269 53.4604C57.8269 51.2399 57.8269 49.0756 57.8269 46.8551C56.4151 46.5459 54.9751 46.3211 53.6198 45.8713C48.1139 44.0163 44.4716 39.1256 44.4151 33.3635C44.3304 24.9313 44.3304 16.4991 44.4151 8.06685C44.4433 3.42913 47.9445 0.0843443 52.6316 0.0562368C59.4646 0.0281294 66.2693 0.0281294 73.1022 0.0562368C77.9305 0.0843443 81.3752 3.48534 81.3752 8.29171C81.4035 16.3585 81.3752 24.3973 81.3752 32.4641C81.3752 40.1093 76.6881 45.506 69.0646 46.6021C68.6975 46.6021 68.3305 46.6584 67.8787 46.7146ZM37.4692 71.7302C36.0292 70.1843 35.3233 68.3573 35.8315 66.2211C36.4527 63.5228 38.5704 62.0331 42.0151 62.0331C50.1469 62.005 58.3069 62.0331 66.4387 62.005C67.1446 62.005 67.8787 61.9769 68.5281 61.7802C69.8552 61.3867 70.5046 60.3467 70.4764 58.9975C70.4481 57.7327 69.827 56.6927 68.4999 56.4116C67.9916 56.2992 67.2011 56.496 66.8622 56.8614C64.5469 59.4191 61.2716 59.4753 58.9846 56.9738C58.5893 56.5522 57.8269 56.2149 57.234 56.2149C52.7163 56.1587 48.1986 56.1868 43.681 56.1868C41.8457 56.1868 40.0104 56.2149 38.1751 56.1868C36.368 56.1587 35.8598 55.456 36.5374 53.8258C36.6504 53.5166 36.7915 53.2355 36.9045 52.9263C38.3163 49.0756 37.0739 44.1006 34.0527 41.7958C33.5445 41.4304 32.6409 41.065 32.1892 41.2898C31.6527 41.5709 31.2856 42.386 31.088 43.0606C30.7774 44.1287 30.7492 45.2811 30.495 46.3773C29.4503 50.7339 27.0786 53.9944 22.5327 55.1468C20.415 55.6808 18.2127 55.9057 16.0385 56.2149C15.3609 56.2992 14.6832 56.243 13.9773 56.243C13.9773 64.9844 13.9773 73.5291 13.9773 82.0456C19.6809 82.5797 19.6244 82.6359 24.6786 85.7277C25.9492 86.5147 27.5021 87.1049 28.9986 87.2736C31.3703 87.5266 33.7704 87.3298 36.1704 87.3298C35.4927 82.9732 35.5492 82.5797 37.441 80.2467C35.0692 76.9582 35.0692 74.822 37.4692 71.7302ZM67.8222 43.7352C72.7634 44.3535 78.354 39.7439 78.4952 34.5441C78.7493 25.6059 78.6928 16.6677 78.6081 7.72957C78.5799 4.75018 76.3211 2.67023 73.2999 2.64212C66.3258 2.5578 59.3799 2.5578 52.4057 2.64212C49.2716 2.67023 47.0975 4.91882 47.0692 8.03875C47.041 16.5272 47.0128 24.9875 47.0692 33.476C47.0975 36.9894 48.7069 39.8001 51.5022 41.852C53.3375 43.2011 55.3704 44.0444 57.6575 43.8476C57.7704 43.679 57.7987 43.6228 57.7987 43.5947C57.8269 42.386 57.8269 41.1493 57.8551 39.9407C57.8834 38.3386 58.674 37.4953 60.2551 37.4391C62.0057 37.3829 63.7281 37.3829 65.4787 37.4391C67.0034 37.4953 67.7375 38.3105 67.7658 39.8564C67.8222 41.1493 67.8222 42.4422 67.8222 43.7352ZM49.2716 64.6471C46.7304 64.6471 44.1892 64.619 41.648 64.6471C39.5868 64.6752 38.4574 65.6309 38.401 67.3735C38.3163 69.2005 39.4174 70.4091 41.4786 70.4372C46.6175 70.4935 51.7281 70.4935 56.8669 70.4372C58.8998 70.4091 60.0857 69.1724 60.001 67.4016C59.9163 65.6871 58.7587 64.6752 56.754 64.6471C54.241 64.619 51.7563 64.6471 49.2716 64.6471ZM48.1422 73.0793C45.968 73.0793 43.8222 73.0512 41.648 73.0793C39.5304 73.1075 38.401 74.1193 38.3727 75.9182C38.3445 77.7171 39.5021 78.8695 41.5633 78.8695C45.9398 78.9257 50.3163 78.9257 54.6645 78.8695C56.7257 78.8414 57.8834 77.689 57.8834 75.9182C57.8834 74.1474 56.6975 73.0793 54.6081 73.0512C52.4622 73.0793 50.3163 73.0793 48.1422 73.0793ZM47.2104 81.5397C45.2904 81.5397 43.3704 81.5116 41.4504 81.5397C39.5304 81.5959 38.4574 82.6078 38.401 84.3223C38.3445 86.0369 39.361 87.2736 41.2245 87.3298C45.121 87.4422 49.0175 87.4141 52.9139 87.3298C54.7492 87.3017 55.9069 86.0088 55.9069 84.4066C55.8787 82.7764 54.6081 81.5959 52.7163 81.5397C50.881 81.5116 49.0457 81.5397 47.2104 81.5397ZM60.5375 40.1655C60.5375 44.8595 60.5093 49.3848 60.5657 53.9101C60.5657 55.0625 61.2434 55.8495 62.401 56.1025C63.5022 56.3273 64.3775 55.9057 64.8575 54.9501C65.1116 54.4441 65.1963 53.7976 65.1963 53.2074C65.2246 49.2442 65.2246 45.253 65.1963 41.2898C65.1963 40.9244 65.1399 40.559 65.1116 40.1936C63.6152 40.1655 62.1752 40.1655 60.5375 40.1655Z" fill="#30B09B"/>
<path d="M71.6623 17.567C71.6623 14.8125 71.6623 12.3109 71.6623 9.69693C65.8175 9.69693 60.0011 9.69693 54.0999 9.69693C54.0999 12.2828 54.0999 14.8125 54.0999 17.567C55.5963 17.567 57.0363 17.567 58.4763 17.567C58.9563 17.567 59.4928 17.4265 59.8599 17.6232C60.3963 17.9043 60.7916 18.4383 61.2716 18.8881C60.8199 19.3378 60.4246 20.1529 59.9446 20.2091C57.7987 20.3496 55.6246 20.3496 53.4504 20.2372C52.1234 20.181 51.361 19.2535 51.361 17.8762C51.3328 15.0092 51.3328 12.1704 51.361 9.30343C51.3893 7.86995 52.2081 7.02673 53.6481 6.99862C59.7469 6.97051 65.874 6.97051 72.0011 6.99862C73.5258 6.99862 74.3164 7.84184 74.3164 9.38775C74.3446 12.1985 74.3446 15.0092 74.3164 17.82C74.3164 19.394 73.4693 20.2372 71.8599 20.2653C70.1658 20.3215 68.4717 20.2934 66.7775 20.2653C65.874 20.2653 65.1681 19.928 65.1399 18.9443C65.1117 17.9324 65.8175 17.5951 66.7493 17.5951C68.3587 17.567 69.9681 17.567 71.6623 17.567Z" fill="#30B09B"/>
<path d="M51.3613 29.9624C51.3896 27.2922 53.5637 25.1841 56.2461 25.2404C58.8719 25.2685 60.9896 27.4046 60.9896 29.9905C60.9896 32.5764 58.7308 34.8531 56.1613 34.8531C53.5919 34.8531 51.3613 32.5764 51.3613 29.9624ZM58.3355 30.0467C58.3637 28.8662 57.4037 27.9106 56.2178 27.8825C55.0602 27.8543 54.0437 28.8381 54.0437 29.9905C54.0155 31.171 54.9755 32.0986 56.1613 32.1267C57.3755 32.1267 58.3072 31.2272 58.3355 30.0467Z" fill="#30B09B"/>
<path d="M74.3444 30.0464C74.3444 32.6885 72.0856 34.909 69.5162 34.8528C66.9468 34.7965 64.8009 32.6042 64.7444 30.0464C64.7162 27.4043 66.8903 25.24 69.5727 25.2119C72.255 25.24 74.3444 27.3481 74.3444 30.0464ZM71.7186 29.934C71.6903 28.7816 70.6738 27.8259 69.5162 27.854C68.3303 27.8821 67.4268 28.8659 67.455 30.0464C67.4832 31.255 68.415 32.0982 69.6574 32.0701C70.7868 32.0701 71.7468 31.0864 71.7186 29.934Z" fill="#30B09B"/>
</g>
<defs>
<clipPath id="clip0_6_4055">
<rect width="81.3462" height="90" fill="white"/>
</clipPath>
</defs>
</svg>
