<svg width="121" height="90" viewBox="0 0 121 90" fill="none" xmlns="http://www.w3.org/2000/svg">
<g id="Frame" clip-path="url(#clip0_6_4095)">
<g id="Group">
<path id="Vector" d="M0.935447 27.8796C2.19844 28.1134 3.22755 28.3006 4.49054 28.5344C4.30343 30.1717 4.11632 31.7153 4.02277 33.2122C3.69532 38.6852 4.30343 44.0178 5.70676 49.3505C8.56019 60.1093 11.0394 70.9617 13.7525 81.7673C14.8752 86.3515 18.477 87.5209 22.1725 84.5272C34.2878 74.6103 46.4032 64.6467 58.4718 54.6831C63.2431 50.7538 65.6288 45.5615 65.7224 39.3401C65.7691 34.8026 65.7691 30.312 65.7224 25.7746C65.582 17.3078 60.0155 9.21532 52.1101 6.31511C43.503 3.13423 34.6621 2.90035 25.8211 5.14567C18.5706 7.01677 13.0976 11.5074 8.84085 17.9627C7.81175 17.3078 6.82942 16.6529 5.65998 15.9513C11.9282 6.45544 20.5352 1.1228 31.6215 0.234027C38.2172 -0.280526 44.8596 -0.140193 51.2681 2.01157C52.9053 2.5729 54.6361 3.04068 55.9926 3.97623C58.1912 5.56667 60.4833 5.84733 63.0093 5.707C65.4417 5.61344 67.8741 5.37956 70.2598 5.75378C73.16 6.17478 76.107 6.78288 78.7265 7.9991C80.7847 8.98143 82.7026 9.40243 84.9011 9.4492C91.45 9.49598 97.9989 9.49598 104.501 9.91698C107.401 10.1041 110.301 11.0396 113.108 11.9284C119.376 13.8931 121.996 21.3775 118.254 26.7569C116.663 29.049 114.511 30.9201 112.64 33.0251C110.676 35.2236 108.758 37.469 106.699 39.8078C105.343 38.311 104.594 37.5157 103.706 36.5334C106.138 34.101 108.524 31.8089 110.863 29.4232C112.219 28.0199 113.623 26.6633 114.792 25.1197C117.458 21.7049 116.149 16.7465 112.032 15.6238C107.775 14.4544 103.378 13.6592 98.9812 13.285C94.3502 12.9107 89.6257 13.1914 84.9479 13.1914C79.1943 13.1914 75.3117 16.9804 75.0311 22.8276C74.9843 23.9035 75.0311 24.9794 75.0311 26.1488C73.7213 26.1488 72.6922 26.1488 71.4292 26.1488C70.634 20.3016 72.5051 15.39 77.0425 11.3671C72.5986 8.74754 67.9677 9.63632 63.1496 9.4492C63.477 10.0105 63.6174 10.3848 63.898 10.7122C66.9854 14.2205 69.0436 18.2434 69.1371 22.9211C69.3242 29.7507 69.1371 36.627 68.95 43.4565C68.9032 44.9534 68.0145 46.4502 67.8273 47.9471C67.7338 48.7423 68.3419 49.6311 68.6693 50.4731C69.4178 49.9586 70.4469 49.6311 70.7743 48.9762C71.2421 48.0407 71.2421 46.8712 71.2421 45.7954C71.2889 40.6498 71.2421 35.5043 71.2421 30.2184C72.4583 30.2184 73.581 30.2184 74.9843 30.2184C74.9843 34.7559 75.0779 39.3401 74.9375 43.9243C74.8907 45.4679 75.4521 46.3099 76.7151 47.0584C80.6912 49.3972 84.8076 49.5376 88.7369 47.4326C92.6194 45.3744 96.2213 42.708 100.197 40.1821C100.712 40.7902 101.46 41.6322 102.162 42.4742C92.7598 51.549 83.6382 55.3848 74.7036 50.3328C71.2421 54.9638 69.6049 55.4315 65.8159 53.2798C51.8762 64.787 38.0768 76.2008 24.2307 87.5677C18.5706 92.1987 11.6943 89.9066 9.96351 82.8432C6.78264 69.839 3.41466 56.8816 0.514449 43.8307C-0.514657 38.6384 0.0466739 33.3058 0.935447 27.8796Z" fill="#30B09B"/>
<path id="Vector_2" d="M59.8756 20.1149C58.7529 20.5359 57.7238 20.8634 56.5544 21.2844C53.5606 14.8759 48.5554 11.5079 41.492 11.2272C41.4452 10.8062 41.3984 10.5255 41.3984 10.2449C41.3984 9.49643 41.3984 8.70121 41.3984 7.95277C47.9941 6.45589 57.1157 12.3966 59.8756 20.1149Z" fill="#30B09B"/>
<path id="Vector_3" d="M5.51994 25.0266C4.21017 24.6056 3.18106 24.2314 1.96484 23.8104C2.4794 22.5006 2.90039 21.3779 3.46173 19.9746C4.63116 20.4892 5.66027 20.9569 6.82971 21.4715C6.40871 22.6409 6.03449 23.67 5.51994 25.0266Z" fill="#30B09B"/>
</g>
</g>
<defs>
<clipPath id="clip0_6_4095">
<rect width="120.031" height="90" fill="white"/>
</clipPath>
</defs>
</svg>
