<svg width="90" height="76" viewBox="0 0 90 76" fill="none" xmlns="http://www.w3.org/2000/svg">
<g id="Frame" clip-path="url(#clip0_6_4065)">
<g id="Group">
<path id="Vector" d="M9.91786 40.7495C-0.462012 29.5996 1.60164 14.538 10.4723 6.28339C19.1273 -1.78642 34.5585 -3.14166 45.0616 8.43945C51.0678 1.97128 58.4292 -1.0472 67.269 0.308033C72.6591 1.13965 77.2177 3.72692 80.9445 7.73103C87.9055 15.1848 90.5852 29.3224 80.1745 40.7187C82.1766 40.7187 83.9322 40.7187 85.6879 40.7187C86.6119 40.7187 87.5359 40.7187 88.46 40.7187C89.3224 40.7187 89.9692 41.0575 90.0308 42.0431C90.0616 43.0904 89.4148 43.4908 88.46 43.4908C85.2259 43.4908 81.9918 43.5524 78.7577 43.46C77.6181 43.4292 76.848 43.7988 76.078 44.5688C66.3758 54.3327 56.6427 64.0349 46.9404 73.768C45.2156 75.4928 44.9076 75.4928 43.2136 73.7988C33.4497 64.1273 23.7166 54.3943 14.0144 44.6612C13.2444 43.8912 12.4743 43.4908 11.3347 43.5216C8.19302 43.5832 5.08214 43.5524 1.94045 43.5524C0.954825 43.5524 0 43.46 0 42.1663C0 40.8727 0.954825 40.7803 1.94045 40.7803C4.49692 40.7495 7.02259 40.7495 9.91786 40.7495ZM48.4497 47.6181C48.8193 46.7249 49.0041 46.2629 49.1889 45.77C52.731 36.5914 56.2731 27.4128 59.8768 18.2649C60.1232 17.6181 60.8932 17.1561 61.4476 16.6325C61.9712 17.1561 62.7413 17.6181 63.0185 18.2649C65.7598 25.1643 68.4394 32.0945 71.0883 39.0247C71.4887 40.1027 71.7967 41.0575 73.2751 40.7803C74.3532 40.5647 75.77 40.8419 76.4784 40.2259C81.1294 36.2218 83.9322 31.1705 84.3018 24.9179C85.1335 11.0883 71.9507 0.061626 58.5524 3.35731C53.9014 4.49694 50.1745 7.08421 46.9404 10.5339C45.1848 12.382 44.8768 12.382 43.152 10.5647C40.0411 7.26902 36.499 4.71255 32.0329 3.48052C19.9281 0.123228 7.05339 8.93226 5.85216 21.4374C5.17454 28.3368 7.423 34.1581 12.3203 39.1171C13.4908 40.2875 14.6612 40.8111 16.3244 40.8111C25.5031 40.7187 34.6817 40.7803 43.8912 40.7495C45.308 40.7495 46.0472 41.2423 46.4784 42.5668C47.002 44.1376 47.6797 45.6776 48.4497 47.6181ZM45 71.3655C54.2402 62.1253 63.4805 52.9158 72.7515 43.6448C72.5359 43.614 72.2279 43.4908 71.9507 43.5524C70.3183 43.7988 69.5174 43.0288 69.0246 41.5195C68.3162 39.4251 67.4538 37.3922 66.653 35.3594C64.9589 30.9548 63.2649 26.5811 61.4476 21.9302C61.0164 22.9158 60.6776 23.6551 60.4004 24.4251C56.9199 33.4189 53.4702 42.4128 49.9589 51.3758C49.7125 51.9918 49.0041 52.7926 48.4805 52.8234C47.9877 52.8542 47.2177 52.0842 46.9404 51.499C45.9856 49.3429 45.154 47.1253 44.384 44.9076C44.0452 43.9528 43.5832 43.5524 42.5051 43.5524C34.4969 43.614 26.4887 43.5832 18.4805 43.5832C18.0801 43.5832 17.6489 43.6756 17.2485 43.7064C26.6427 53.0082 35.883 62.2485 45 71.3655Z" fill="#30B09B"/>
</g>
</g>
<defs>
<clipPath id="clip0_6_4065">
<rect width="90" height="75.1232" fill="white"/>
</clipPath>
</defs>
</svg>
