<svg width="81" height="90" viewBox="0 0 81 90" fill="none" xmlns="http://www.w3.org/2000/svg">
<g id="Frame" clip-path="url(#clip0_6_4143)">
<g id="Group">
<path id="Vector" d="M21.8322 13.4647C19.6525 7.45297 21.34 2.63656 26.1915 0.667813C30.5509 -1.09 35.4025 0.808437 37.4767 5.06234C39.7618 9.84359 37.7228 14.4139 31.8165 17.5428C32.2736 18.8436 32.59 20.2147 33.1525 21.4803C34.9454 25.5584 38.1095 27.7381 42.5392 28.0194C43.7697 28.0897 45.0001 28.0545 46.2306 28.0545C51.6095 28.0545 53.6486 30.3397 53.1212 35.7889C58.3243 35.7889 63.5626 35.9647 68.7657 35.7537C73.7228 35.5428 76.5353 38.4256 76.3947 43.3475C76.2189 50.3084 76.3595 57.3045 76.3595 64.2655C76.3595 64.6873 76.3595 65.0741 76.3243 65.4959C76.254 66.6209 75.7618 67.4998 74.5314 67.4647C73.3009 67.4295 72.8087 66.5506 72.8087 65.4256C72.7736 61.91 72.8087 58.3944 72.7736 54.8787C72.7736 54.1405 72.7736 53.367 72.7736 52.4881C64.9337 52.4881 57.2345 52.4881 49.3243 52.4881C49.3243 53.2264 49.3243 53.8944 49.3243 54.5623C49.3243 65.1092 49.3243 75.6561 49.3243 86.203C49.3243 86.66 49.3243 87.1522 49.3243 87.6092C49.2892 88.8748 48.8673 89.9295 47.4611 89.8592C46.1603 89.8241 45.8087 88.8045 45.8087 87.6092C45.8087 80.4022 45.8087 73.1952 45.8087 65.9881C45.8087 58.4295 45.8087 50.8709 45.8087 43.3123C45.8087 42.0467 45.9493 40.7811 46.0548 39.3397C40.5353 39.5155 35.0861 38.742 29.6017 35.8241C29.7423 38.742 29.672 41.3436 30.0587 43.8748C30.3751 45.9491 31.1134 47.953 31.922 49.8866C34.3829 55.9686 34.5587 62.1561 33.2228 68.5194C32.4142 72.2811 31.8868 76.1131 31.3243 79.9452C31.2189 80.578 31.5353 81.4217 31.9572 81.9139C33.4337 83.5311 34.3478 85.3592 34.5587 87.5389C34.6993 89.1912 34.0314 89.9647 32.379 89.9647C28.2657 89.9998 24.1876 89.9647 20.0743 89.9647C18.5275 89.9647 17.8595 89.1912 17.8595 87.6795C17.8595 84.1639 17.8595 80.6834 17.8595 77.0623C16.9806 78.0467 15.9259 79.1366 15.0118 80.367C14.8009 80.6483 15.047 81.3514 15.1876 81.8084C15.8907 84.2342 15.715 86.5545 14.4845 88.7694C13.8165 89.9647 12.9025 90.3163 11.7072 89.578C8.22668 87.5389 4.81653 85.4647 1.47668 83.3202C-0.210817 82.2655 -0.45691 80.8944 0.773558 79.1014C4.07825 74.3905 7.52356 69.8202 10.7931 65.1092C11.6017 63.9491 12.0236 62.5428 12.5157 61.2069C12.8322 60.2928 12.9025 59.2733 13.1134 58.2889C13.7814 55.0194 13.7111 51.9256 13.0782 48.5155C11.1447 38.0389 11.8829 27.6327 16.6993 17.8592C17.7189 15.6795 19.5118 14.3436 21.8322 13.4647ZM26.1915 41.3787C26.1915 40.1834 26.0861 39.1288 26.1915 38.1092C26.4728 35.2967 26.1564 32.8006 23.379 31.2186C23.0626 31.0428 22.6759 30.6209 22.6407 30.2694C22.6056 29.6366 22.6056 28.7928 22.9572 28.4061C23.3439 28.0194 24.1876 27.9491 24.8204 28.0194C25.2775 28.0897 25.6993 28.5819 26.0861 28.9334C32.1329 34.6288 39.5157 36.2108 47.5314 35.7537C48.797 35.6834 49.7111 35.0155 49.7111 33.6795C49.7111 32.2733 48.7618 31.6053 47.4259 31.5702C45.7384 31.535 44.0157 31.5702 42.3282 31.4998C38.1798 31.2889 34.629 29.7069 32.1329 26.4022C30.7618 24.5741 29.9532 22.3241 29.0392 20.1795C28.1954 18.2459 26.965 16.9452 24.8204 16.6991C22.7814 16.5233 21.0236 17.2616 20.0392 19.0545C16.3478 26.0155 15.3986 33.5389 15.8204 41.3787C19.2657 41.3787 22.6056 41.3787 26.1915 41.3787ZM15.8907 44.9998C15.9962 45.9139 16.0665 46.5467 16.172 47.1795C17.0861 51.5741 19.3361 55.1952 22.6759 58.1131C23.6954 58.992 24.0822 59.9412 23.8712 61.3475C23.2736 65.1092 22.8517 68.8709 22.3947 72.6327C22.1134 74.8475 21.8673 77.0975 21.6212 79.3123C23.8009 79.3123 25.7697 79.3123 27.7736 79.3123C28.4415 75.0936 29.215 71.0506 29.7423 66.9373C30.129 63.9842 30.7618 60.9256 30.2697 58.078C29.5665 53.8592 28.0197 49.7459 26.754 45.6327C26.6486 45.3514 26.0509 45.035 25.6993 45.035C22.5353 44.9647 19.3361 44.9998 15.8907 44.9998ZM72.7384 48.7264C72.7384 46.3006 72.8087 43.9803 72.7032 41.66C72.6329 40.1483 71.6486 39.3397 70.1368 39.3397C64.0548 39.3045 57.9728 39.3045 51.8907 39.3397C50.4845 39.3397 49.465 40.1483 49.3946 41.5545C49.2892 43.91 49.3595 46.3006 49.3595 48.7264C57.2345 48.7264 64.9337 48.7264 72.7384 48.7264ZM7.76965 74.8123C9.38684 75.7967 10.8986 76.7108 12.4806 77.6952C13.4298 76.6405 14.2032 75.5858 15.1525 74.742C18.4572 71.8944 19.547 68.2733 20.1095 64.0194C20.5665 60.6444 18.8439 59.203 16.84 57.3045C16.6642 58.3592 16.4884 59.203 16.3478 60.0819C15.8556 62.7889 15.504 65.4256 13.4298 67.6053C11.4611 69.7498 9.80871 72.2108 7.76965 74.8123ZM34.7697 8.78891C34.7697 5.87094 32.4493 3.51547 29.5665 3.51547C26.7189 3.51547 24.2931 5.87094 24.2228 8.71859C24.1525 11.6366 26.6134 14.0623 29.5665 14.0623C32.4493 14.0272 34.7697 11.7069 34.7697 8.78891ZM30.5509 86.4139C29.2501 82.9686 26.297 82.5819 21.4454 83.1795C21.4454 84.2342 21.4454 85.3241 21.4454 86.4139C24.504 86.4139 27.4572 86.4139 30.5509 86.4139ZM11.8126 85.5702C12.2345 81.9842 10.547 79.9803 5.66028 77.9061C5.09778 78.785 4.53528 79.6991 3.90246 80.6834C6.6095 82.3709 9.10559 83.9178 11.8126 85.5702Z" fill="#30B09B"/>
<path id="Vector_2" d="M80.5082 83.9525C80.5433 87.2923 77.8363 89.9994 74.5316 89.9642C71.2972 89.929 68.6605 87.2923 68.6253 84.0228C68.5902 80.683 71.2972 77.9759 74.6019 78.0111C77.8714 78.0462 80.473 80.683 80.5082 83.9525ZM76.9574 84.0931C76.9925 82.722 75.9378 81.597 74.6019 81.5619C73.3011 81.5267 72.2464 82.5462 72.1761 83.847C72.0707 85.2181 73.0902 86.3783 74.4261 86.4486C75.7972 86.5189 76.9222 85.4642 76.9574 84.0931Z" fill="#30B09B"/>
<path id="Vector_3" d="M74.11 74.7422C73.6881 74.0391 72.9146 73.3008 72.985 72.668C73.0553 72.0704 73.9693 71.2266 74.6021 71.1211C75.6217 70.9454 76.4303 71.8243 76.1842 72.879C76.0435 73.5821 75.3404 74.1446 74.8834 74.7774C74.6373 74.7422 74.3912 74.7422 74.11 74.7422Z" fill="#30B09B"/>
</g>
</g>
<defs>
<clipPath id="clip0_6_4143">
<rect width="80.5078" height="90" fill="white"/>
</clipPath>
</defs>
</svg>
