<svg width="91" height="90" viewBox="0 0 91 90" fill="none" xmlns="http://www.w3.org/2000/svg">
<g id="Frame" clip-path="url(#clip0_6_4152)">
<g id="Group">
<path id="Vector" d="M8.93262 20.8677C11.5598 21.881 12.6857 19.4415 14.5623 18.9536C14.825 18.8785 14.7875 18.0153 15.0502 17.64C15.4631 17.1145 16.0636 16.7017 16.5515 16.2513C17.0394 16.8143 18.0152 17.5274 17.9026 17.8652C17.4522 19.2163 16.6641 20.4548 15.9885 21.7309C15.6507 22.3689 15.0502 23.0069 15.0502 23.6825C14.9376 26.3848 14.9752 29.0495 15.0127 31.7517C15.1253 38.2822 20.4547 43.499 26.9476 43.5365C33.5156 43.5741 38.8826 38.3197 38.9952 31.7142C39.0327 29.0119 39.0702 26.3472 38.9576 23.645C38.9201 23.082 38.4697 22.3314 37.9818 21.9936C36.4806 20.8677 34.8667 19.8168 33.2154 18.8785C32.6899 18.5782 31.8642 18.7659 31.1887 18.841C30.1378 18.9911 29.0869 19.5541 28.1111 19.4039C26.3471 19.1412 24.6958 18.6533 22.8943 19.4039C22.4814 19.5916 21.6557 18.7284 21.0177 18.3531C21.4305 17.7526 21.8058 17.1521 22.2187 16.5516C22.2562 16.4765 22.5189 16.5516 22.5565 16.4765C24.2078 14.675 25.8217 15.0878 27.7358 16.2513C28.3363 16.6266 29.8375 16.0637 30.5506 15.5007C31.7516 14.5249 32.4272 14.4873 33.7408 15.4256C35.9176 17.0019 38.4322 18.1654 40.7591 19.5916C41.8475 20.2672 42.7108 21.1679 44.2496 21.1679C45.9385 21.1679 46.6516 20.6425 46.3888 18.916C46.2387 17.8652 46.2387 16.7767 46.3513 15.7259C46.539 14.2621 46.1261 13.0611 44.775 12.4231C43.4239 11.8226 42.936 11.1095 43.3113 9.53321C43.8367 7.16874 41.735 5.55489 39.2954 6.23046C38.6574 6.41811 37.7566 6.49317 37.2312 6.19292C36.1803 5.59242 36.5932 4.2413 37.9068 3.56574C41.4722 1.7267 45.8634 4.27883 46.4264 8.40727C46.539 9.1579 47.0644 9.90852 47.4772 10.5841C47.7775 11.1095 48.4531 11.5224 48.6032 12.0478C49.6541 15.6508 49.9918 19.2913 48.378 22.8568C48.1153 23.4198 47.8526 24.0953 47.8901 24.6958C48.1528 28.0737 46.4639 31.0762 43.3488 32.3522C42.2979 32.7651 41.7725 33.2905 41.5848 34.4164C40.8717 38.2822 38.8075 41.2847 35.73 43.6867C35.0169 44.2496 34.6415 45.1879 34.0786 45.9385C34.2287 46.1262 34.3413 46.3139 34.4914 46.5015C35.8801 46.5015 37.3063 46.5015 38.6949 46.5015C47.3271 46.539 53.8576 53.0695 53.9326 61.7017C53.9326 63.0903 54.0827 64.479 53.8576 65.8301C53.745 66.4306 52.9568 66.9561 52.5064 67.519C51.981 66.9561 51.1178 66.4306 51.0052 65.7926C50.78 64.4039 50.9301 62.9402 50.9301 61.4765C50.8175 54.8335 45.6382 49.8418 38.9952 49.429C35.1295 49.2038 32.2771 50.1796 29.7249 53.1821C27.1353 56.2972 26.9101 56.1095 24.0202 53.2196C23.3071 52.5065 22.6691 51.7184 21.8809 51.1179C20.0794 49.6541 18.9535 47.9652 19.3288 45.4882C19.4038 45.0003 18.8784 44.2121 18.428 43.9119C15.0878 41.4723 12.986 38.3197 12.1228 34.2663C11.9727 33.5908 11.2596 32.8026 10.6215 32.5023C7.24371 30.926 5.81753 27.8485 6.19284 24.0203C6.38049 22.0687 6.56815 19.8918 5.32962 17.9402C3.82837 15.5382 4.39134 12.6108 6.45556 10.5841C7.05606 9.98358 7.54396 9.27049 7.84421 8.48233C8.82003 6.11786 10.584 4.91686 13.0611 4.42895C14.1119 4.20377 15.2754 3.56574 15.9134 2.74005C17.8651 0.375577 19.8918 -0.41258 22.8192 0.262983C23.5698 0.450639 24.3955 0.338045 25.1837 0.18792C28.0736 -0.375049 30.6257 0.338045 32.8776 2.17708C33.6657 2.85264 34.2662 3.75339 33.328 4.54155C32.8776 4.91686 31.6015 4.91686 31.1136 4.54155C29.0494 3.0403 26.9852 2.66498 24.5832 3.5282C23.9827 3.75339 23.1194 3.60327 22.4814 3.37808C20.5673 2.70252 19.4414 3.11536 18.353 4.76674C17.2646 6.38058 15.8384 7.54405 13.6616 7.50652C11.9351 7.50652 10.9968 8.4448 10.5089 10.1337C10.2462 10.9594 9.72078 11.8601 9.04522 12.3856C7.50643 13.5866 6.90593 15.5007 8.21953 16.7392C9.60818 18.0153 9.79584 19.2538 8.93262 20.8677ZM27.0227 52.0937C28.4864 49.8043 31.2637 48.9411 31.5264 46.2763C28.3738 46.2763 25.4839 46.2763 22.4063 46.2763C22.9693 48.866 25.4839 49.8418 27.0227 52.0937ZM11.9351 24.0953C10.6966 23.9452 9.53312 23.7576 9.08275 25.2213C8.63237 26.7601 9.9835 28.7492 11.9351 29.4248C11.9351 27.6608 11.9351 25.8968 11.9351 24.0953ZM42.1103 29.5749C44.1745 28.5616 45.4881 26.4973 44.9626 25.1087C44.4372 23.72 43.2737 23.9827 42.1103 24.0953C42.1103 25.9719 42.1103 27.6983 42.1103 29.5749Z" fill="#30B09B"/>
<path id="Vector_2" d="M42.035 84.0706C36.5555 84.0706 31.3011 84.4459 26.1593 83.958C21.4304 83.5076 16.8515 84.7837 12.01 83.9205C12.01 84.9338 12.0851 85.6094 12.01 86.2474C11.7848 87.6361 12.8732 90.0005 10.4712 89.9255C8.10675 89.8879 9.27022 87.5235 9.04504 86.1348C8.93244 85.5343 9.04504 84.8963 9.04504 84.3708C8.81985 84.2207 8.74479 84.1081 8.63219 84.1081C2.43953 83.7703 0 81.1431 0 74.988C0 70.5593 0 66.0931 0 61.6644C0.0375313 53.933 5.4045 47.7778 13.0609 46.6519C13.3236 46.6144 13.5488 46.5768 13.8115 46.5768C14.9374 46.5393 16.2886 46.3516 16.4762 47.8904C16.6264 49.4667 15.3503 49.5043 14.1493 49.5793C7.9191 50.0672 3.1151 55.1715 3.04003 61.4017C2.96497 66.3558 3.0025 71.2724 3.04003 76.2265C3.07756 79.1915 4.87907 80.993 7.84404 81.0681C10.0208 81.1056 12.2352 81.0681 14.412 81.0681C14.5997 81.0681 14.7873 81.0305 15.0125 80.993C15.0125 79.0789 15.0125 77.1648 15.0125 75.1006C13.7364 75.1006 12.4229 75.0631 11.1093 75.1006C9.7206 75.1381 9.00751 74.5752 9.00751 73.1114C9.00751 69.4334 8.93244 65.7178 9.08257 62.0397C9.1201 61.3642 10.0208 60.7261 10.5463 60.0881C11.0342 60.7637 11.9349 61.4017 11.9725 62.0772C12.1226 65.3049 12.0475 68.5702 12.0475 72.0606C13.0609 72.0606 13.9616 72.023 14.8624 72.0606C17.7898 72.2482 20.6797 72.5485 23.6072 72.6235C24.8457 72.6611 26.1218 72.0981 27.3603 72.0606C32.1643 71.9855 36.9683 72.023 42.035 72.023C42.035 70.3341 42.035 68.7203 42.035 67.1064C42.035 65.3049 41.9224 63.4659 42.1101 61.6644C42.1851 61.0639 43.0108 60.576 43.4987 60.013C44.0242 60.4634 44.9625 60.9138 44.9625 61.3642C45.0751 65.4175 45.0751 69.5084 45 73.5618C44.9625 74.8754 43.8741 75.0255 42.7856 75.0255C38.2819 75.0255 33.7781 75.0255 29.2744 75.0255C28.5988 75.0255 27.9233 75.0255 27.1351 75.0255C27.1351 77.0147 27.1351 78.8537 27.1351 80.8804C27.548 80.918 27.9983 81.0305 28.4862 81.0305C34.3036 81.0305 40.1209 81.0305 45.9383 81.0305C49.2786 81.0305 51.005 79.2666 51.0425 75.9263C51.0425 74.6878 50.8924 73.4117 51.1176 72.1732C51.2302 71.5727 52.0183 71.0848 52.5062 70.5218C53.0317 71.0472 53.9324 71.5351 53.97 72.0981C54.1201 73.9747 54.1952 75.8512 53.9324 77.7278C53.3695 81.7436 50.442 83.8079 45.0375 84.1456C45.0375 85.4592 45.1877 86.8479 44.9625 88.1615C44.8499 88.837 44.1743 89.8504 43.5738 89.963C42.4479 90.1882 41.9975 89.2499 41.9975 88.1615C42.035 86.8479 42.035 85.5718 42.035 84.0706ZM24.02 78.0656C24.02 75.7762 23.1193 75.1006 20.1168 75.0631C18.3528 75.0631 18.0525 75.5134 18.015 77.953C18.015 80.5802 18.3153 81.0681 20.0792 81.0305C23.1193 81.0305 24.02 80.3175 24.02 78.0656Z" fill="#30B09B"/>
<path id="Vector_3" d="M54.0452 20.9805C54.0452 18.0906 53.9326 15.2382 54.1203 12.3483C54.1578 11.4475 54.7583 10.2841 55.5089 9.83369C60.5381 6.79366 65.6049 3.86622 70.7466 1.05137C71.4597 0.676062 72.7358 0.676062 73.4489 1.08891C78.5907 3.90375 83.6949 6.86872 88.7241 9.87122C89.3997 10.2841 89.9251 11.3725 90.0752 12.2357C90.3004 13.5118 90.3004 14.8629 90.0752 16.1389C89.9626 16.8145 89.1745 17.3775 88.6866 17.978C88.1611 17.415 87.1478 16.7019 87.2229 16.2515C87.9735 12.7236 85.7591 11.3349 83.132 9.98382C79.7541 8.25738 76.5265 6.15563 73.1862 4.35413C72.6232 4.05388 71.6099 4.05388 71.0469 4.35413C66.6933 6.75613 62.4147 9.19566 58.1737 11.7478C57.6107 12.0856 57.1228 12.9863 57.0853 13.6244C57.0102 18.5785 57.0102 23.4951 57.0853 28.4492C57.0853 29.0872 57.6482 29.9505 58.1737 30.2882C62.4147 32.8404 66.6933 35.2799 71.0094 37.6819C71.5348 37.9822 72.4731 38.0197 72.9985 37.7194C77.3521 35.2799 81.7058 32.8028 85.9843 30.2132C86.5098 29.8754 86.9601 28.9746 86.9977 28.3366C87.1478 26.5351 87.0352 24.6961 87.0352 22.8946C87.0352 21.8062 87.4856 20.8679 88.6115 21.0931C89.1745 21.2057 89.9251 22.219 90.0002 22.857C90.1503 25.2215 90.1503 27.6235 90.0002 29.988C89.9627 30.7011 89.3997 31.6769 88.7992 32.0522C83.6574 35.1298 78.4781 38.1323 73.2237 41.0597C72.6232 41.3975 71.4597 41.3975 70.8217 41.0222C65.6424 38.1323 60.5006 35.1673 55.3963 32.1273C54.7208 31.7144 54.1203 30.5885 54.0452 29.7628C53.9702 26.8729 54.0452 23.9079 54.0452 20.9805Z" fill="#30B09B"/>
<path id="Vector_4" d="M80.505 25.8597C80.6927 26.7229 81.1055 27.511 80.9929 28.2617C80.9179 28.9748 80.3174 29.6503 79.9421 30.3259C79.3416 29.913 78.5159 29.6128 78.1781 29.0123C77.7277 28.2241 77.7277 27.1733 77.3524 26.3476C77.1272 25.8597 76.4141 25.1466 76.0763 25.2216C75.2131 25.4468 74.3124 25.8972 73.7119 26.4977C73.4491 26.7604 73.7119 27.8113 74.0496 28.2992C74.6126 29.1249 75.5509 29.6503 76.0388 30.5135C76.3391 31.0014 76.3391 32.0899 76.0013 32.4276C75.6635 32.7654 74.6126 32.8029 74.0872 32.5402C73.3365 32.1649 72.8111 31.4143 71.6476 30.2883C71.1973 31.0014 70.897 31.9397 70.259 32.315C69.696 32.6528 68.7577 32.4652 68.0071 32.4652C68.0446 31.7521 67.8945 30.8889 68.1948 30.3259C68.6076 29.5753 69.4708 29.1249 69.9587 28.4118C70.2965 27.9239 70.6718 26.9105 70.4466 26.6103C69.8837 25.9347 69.0205 25.3718 68.1572 25.1841C67.7444 25.109 66.9938 25.9347 66.6935 26.5352C66.2807 27.2858 66.3557 28.2992 65.9054 29.0123C65.5676 29.5753 64.7419 29.838 64.1039 30.2508C63.7285 29.6128 63.1656 29.0123 63.0905 28.3367C63.0154 27.5861 63.3908 26.7979 63.6159 25.8597C62.8653 25.5969 62.1522 25.3342 61.4767 25.1841C60.3883 24.9214 59.6376 24.2458 60.1255 23.1949C60.3883 22.6695 61.4767 22.3693 62.1898 22.2942C62.9779 22.2567 63.7661 22.7821 64.5542 22.8196C65.1923 22.8196 66.2431 22.5944 66.4308 22.1441C66.731 21.431 66.731 20.3426 66.3933 19.667C66.2056 19.2542 65.1172 19.104 64.4416 19.104C63.6535 19.1416 62.8653 19.7045 62.0772 19.6295C61.3641 19.5544 60.6885 19.029 59.9754 18.6912C60.4258 18.0532 60.7636 17.265 61.3265 16.8522C61.8895 16.4393 62.7152 16.3642 63.5034 16.1015C63.2782 15.1632 62.9029 14.3 62.9779 13.4743C63.053 12.8363 63.691 12.2358 64.1039 11.6353C64.6668 12.0106 65.455 12.2733 65.7552 12.7988C66.1681 13.4743 66.093 14.4126 66.4683 15.0882C66.8061 15.7262 67.4817 16.7396 67.932 16.702C68.7577 16.627 69.7335 16.064 70.259 15.3884C70.5217 15.0131 70.0338 13.9247 69.6585 13.3242C69.2081 12.6111 68.3074 12.1232 67.932 11.4101C67.6693 10.8847 67.6693 9.8338 68.0446 9.49602C68.3824 9.15824 69.4333 9.15824 69.9587 9.42096C70.7094 9.79627 71.2348 10.5469 72.3607 11.6353C72.8862 10.8471 73.2615 9.9464 73.8995 9.49602C74.3874 9.15824 75.4383 9.2333 75.9637 9.57109C76.264 9.75874 76.2265 10.9597 75.9262 11.4852C75.4758 12.2733 74.5751 12.7612 74.0496 13.5494C73.7119 14.0373 73.3365 15.0882 73.5993 15.3509C74.1622 15.9889 75.063 16.5519 75.8887 16.7396C76.2265 16.8146 77.0146 16.064 77.2773 15.5386C77.6902 14.7129 77.6526 13.662 78.103 12.8738C78.4408 12.3109 79.2665 12.0481 79.9045 11.6353C80.2423 12.2733 80.8428 12.9114 80.9179 13.5869C80.9929 14.3376 80.6176 15.1257 80.3924 16.064C81.2181 16.3267 82.1189 16.4018 82.7194 16.8522C83.2823 17.3025 83.5451 18.1282 83.9579 18.8038C83.2823 19.104 82.6443 19.667 81.9687 19.667C81.068 19.667 80.1672 19.1416 79.2665 19.0665C78.7411 19.029 77.7652 19.2917 77.6526 19.6295C77.4275 20.4927 77.3899 21.4685 77.6151 22.3317C77.6902 22.6695 78.666 22.9698 79.1914 22.8947C80.0922 22.8196 80.9929 22.2942 81.8937 22.2942C82.5692 22.2942 83.2448 22.8572 83.8828 23.1574C83.47 23.833 83.2073 24.6211 82.6068 25.0715C82.2315 25.5594 81.3682 25.5969 80.505 25.8597ZM69.696 20.9055C69.696 22.2942 70.9345 23.6453 72.0605 23.6078C73.1864 23.6078 74.425 22.2567 74.425 21.0181C74.425 19.7045 73.0738 18.0907 71.9854 18.4285C70.7844 18.8038 69.3582 19.2166 69.696 20.9055Z" fill="#30B09B"/>
<path id="Vector_5" d="M63.2779 63.4658C62.9026 64.5542 62.6774 65.7552 62.0769 66.731C61.1011 68.3073 61.0636 69.6585 62.0394 71.2348C64.0661 74.5751 62.8275 78.9287 59.3371 80.7302C58.8867 80.9554 57.8734 80.8053 57.5731 80.4675C57.2354 80.1297 57.1603 78.9287 57.4606 78.7035C60.5381 76.3766 60.388 73.8244 58.5865 70.7093C57.6482 69.133 58.2862 67.294 59.2245 65.7177C60.5381 63.4283 60.4255 62.49 58.5865 60.6134C58.1361 60.1631 57.5731 59.7502 57.3855 59.2248C57.2354 58.7369 57.3104 57.9112 57.6482 57.5734C57.986 57.2356 58.8492 57.0855 59.2996 57.2732C61.1386 58.0988 63.0152 61.2139 63.2779 63.4658Z" fill="#30B09B"/>
<path id="Vector_6" d="M70.8587 74.5744C70.5209 77.5019 68.757 79.2283 66.7303 80.8046C66.3925 81.0673 65.4167 80.8797 65.0789 80.5419C64.7411 80.2041 64.7411 79.4535 64.7411 78.8905C64.7411 78.6653 65.0789 78.4026 65.3041 78.1774C67.9688 75.2125 67.9688 75.2125 66.3174 71.7221C65.3041 69.6203 65.5293 67.6311 66.6927 65.642C67.9688 63.5027 67.7812 62.4894 66.0547 60.6503C65.229 59.7496 63.5777 58.8864 65.1164 57.4602C66.5051 56.1841 67.3308 57.7229 68.1565 58.5486C70.9338 61.2884 71.2716 63.7279 69.2824 67.1057C68.4943 68.4568 68.5693 69.6203 69.3199 70.9714C69.9955 72.1349 70.3708 73.411 70.8587 74.5744Z" fill="#30B09B"/>
<path id="Vector_7" d="M10.9596 45.1502C8.48253 45.1126 6.68103 43.8741 6.34325 41.885C6.043 40.3086 5.51756 39.2202 4.1289 38.3195C2.47753 37.2311 2.06468 34.7165 3.07803 33.1026C3.41581 32.5772 4.31656 32.3895 4.95459 32.0518C5.25484 32.6898 5.9304 33.4404 5.78028 34.0034C5.48003 35.2794 5.89287 35.8424 6.79362 36.6681C7.76944 37.5689 8.55759 38.8449 8.97044 40.121C9.30822 41.2469 9.53341 41.9975 10.8845 42.2227C11.4475 42.3353 12.3107 43.3487 12.2357 43.7615C12.0855 44.4371 11.2223 44.8875 10.9596 45.1502Z" fill="#30B09B"/>
<path id="Vector_8" d="M51.08 35.3175C50.2543 36.4809 49.3911 37.6069 48.6029 38.7704C48.0399 39.596 47.2893 40.3842 47.0641 41.2849C46.5012 43.6494 44.6997 45.3759 42.5229 45.0756C41.9224 45.0005 40.9841 44.2499 41.0216 43.9121C41.0967 43.3116 41.7347 42.3734 42.2601 42.2608C43.5737 42.0356 43.8364 41.3225 44.2118 40.1965C44.6621 38.8829 45.713 37.757 46.4261 36.556C46.8389 35.8804 47.5145 35.1298 47.4394 34.4918C47.2518 33.3658 47.1392 32.4276 48.3777 32.0898C49.6538 31.752 50.1042 32.7653 50.4419 33.7412C50.5921 34.154 50.6296 34.6044 50.7047 35.0172C50.8548 35.0923 50.9674 35.2049 51.08 35.3175Z" fill="#30B09B"/>
<path id="Vector_9" d="M28.5992 39.6337C27.9236 39.4461 27.3606 39.1833 26.7601 39.1083C25.972 38.9957 25.1463 39.0708 24.3581 38.9206C23.6826 38.808 22.6317 38.6204 22.5566 38.2451C22.4065 37.6446 22.7068 36.6312 23.1571 36.2559C24.3957 35.205 25.8594 35.3176 27.3606 35.9181C27.9987 36.1808 28.7493 36.0683 29.4249 36.2184C30.1755 36.3685 30.8886 36.6312 31.6392 36.8189C31.2639 37.5695 31.0387 38.4327 30.4757 38.9957C30.0629 39.4461 29.2372 39.4461 28.5992 39.6337Z" fill="#30B09B"/>
<path id="Vector_10" d="M24.5079 23.5698C23.9074 24.4705 23.7197 24.996 23.3444 25.2212C22.2935 25.8592 21.2051 26.5348 20.0041 26.8725C19.5162 27.0227 18.5404 26.5348 18.2402 26.0844C18.015 25.7466 18.3152 24.6582 18.7281 24.3955C19.7039 23.6824 20.8673 23.0443 22.0308 22.7441C22.6688 22.5189 23.4945 23.1569 24.5079 23.5698Z" fill="#30B09B"/>
<path id="Vector_11" d="M34.5659 27.2479C33.1021 26.4222 31.7135 25.7466 30.4374 24.8834C30.1372 24.6958 30.0621 23.795 30.2498 23.3822C30.4374 22.9693 31.2256 22.4439 31.5258 22.5565C32.952 23.1194 34.3407 23.795 35.6543 24.5832C35.917 24.7708 35.9921 25.634 35.8419 26.0844C35.6543 26.5348 35.0913 26.7975 34.5659 27.2479Z" fill="#30B09B"/>
<path id="Vector_12" d="M24.6958 30.1005C23.6449 30.7761 23.0069 31.4517 22.4439 31.4141C21.956 31.3766 21.0553 30.4008 21.1678 30.0255C21.318 29.425 22.0686 28.7119 22.6691 28.6368C23.1195 28.5617 23.72 29.3499 24.6958 30.1005Z" fill="#30B09B"/>
<path id="Vector_13" d="M33.7033 30.025C32.6524 30.7005 32.0519 31.4136 31.4889 31.4136C31.001 31.4136 30.1002 30.4378 30.1753 30.1C30.3254 29.4995 31.0385 28.7864 31.639 28.6738C32.0894 28.5237 32.6899 29.3119 33.7033 30.025Z" fill="#30B09B"/>
<path id="Vector_14" d="M29.1995 61.6269C28.1486 62.2649 27.5106 62.978 26.9476 62.9405C26.4597 62.903 25.5965 61.8896 25.6716 61.5518C25.8592 60.9513 26.6099 60.2758 27.2104 60.1632C27.6232 60.0881 28.2237 60.8763 29.1995 61.6269Z" fill="#30B09B"/>
<path id="Vector_15" d="M29.1991 67.5187C28.1858 68.2317 27.5853 68.9448 27.0223 68.9448C26.5344 68.9448 26.0465 68.0816 25.5586 67.6312C26.0465 67.1058 26.4969 66.3177 27.0974 66.1675C27.5478 66.0549 28.1858 66.8056 29.1991 67.5187Z" fill="#30B09B"/>
</g>
</g>
<defs>
<clipPath id="clip0_6_4152">
<rect width="90.1877" height="90" fill="white"/>
</clipPath>
</defs>
</svg>
