<svg width="79" height="90" viewBox="0 0 79 90" fill="none" xmlns="http://www.w3.org/2000/svg">
<g id="Frame" clip-path="url(#clip0_6_4080)">
<g id="Group">
<path id="Vector" d="M65.1145 55.2483C68.597 54.16 71.8256 53.1806 75.308 52.0923C74.9453 51.0403 74.7639 50.3148 74.4737 49.6255C72.406 44.7283 70.3745 39.8311 68.2343 34.9702C67.3274 32.8662 65.7312 31.3426 63.6998 30.1818C59.2016 27.5336 54.4858 25.3934 49.4072 24.0875C42.6236 22.3462 36.094 23.7972 29.6006 25.6473C27.9682 26.1189 26.4084 26.7356 24.8123 27.3523C20.0601 29.1298 16.0698 31.923 13.1315 36.131C10.4108 40.0488 7.54502 43.8577 4.57041 47.9569C7.83522 50.8589 10.9912 53.6521 14.2197 56.4816C15.8522 55.212 17.3032 54.1237 18.6454 52.9266C18.9356 52.6364 19.0444 51.8384 18.8993 51.403C18.1375 49.1902 17.3032 46.9774 16.3963 44.8009C15.9973 43.8214 15.7071 42.8783 16.8679 42.3341C18.065 41.79 18.6454 42.6606 19.0444 43.6038C21.62 49.6255 23.6514 55.7924 24.6309 62.2858C24.6671 62.576 24.6671 62.9024 24.7034 63.1926C24.776 64.2446 24.6309 65.2604 23.3612 65.3329C22.0916 65.4055 21.9465 64.426 21.7651 63.374C21.4023 60.7985 20.8945 58.2592 20.3503 55.4296C18.065 57.1346 16.0335 58.6219 13.8207 60.2906C14.1109 60.5082 14.5462 60.9436 15.0541 61.27C20.6043 64.9339 25.6103 69.1419 29.7457 74.3656C30.7615 75.6352 31.7409 77.2676 31.8497 78.8275C32.2125 83.4345 29.7457 85.7198 24.7034 85.7561C24.7034 86.5179 24.7034 87.2797 24.7034 88.0415C24.7397 89.1298 24.4495 90.1818 23.2161 90.0004C22.672 89.9278 21.7651 88.6945 21.8739 88.1503C22.6357 83.9786 20.0239 81.4756 17.3757 79.1177C14.6188 76.6872 11.5716 74.5469 8.74212 72.2253C6.92833 70.738 5.15082 69.1781 3.44586 67.5457C0.616361 64.8613 -0.617013 61.5965 0.362431 57.715C0.834015 55.9012 1.19677 54.0874 1.81346 52.3099C2.24877 51.004 3.08311 49.8795 1.74091 48.5735C1.48698 48.3196 1.70463 47.2676 2.03111 46.796C5.80378 41.5723 9.54018 36.2761 13.5305 31.1975C16.5051 27.4248 21.0033 25.7924 25.3201 24.0512C25.9368 23.7972 26.5535 23.5796 26.9525 23.4345C26.626 21.2942 26.3721 19.2991 25.9731 17.3039C25.8642 16.7598 25.4289 16.2882 25.1387 15.7803C24.0142 13.5312 22.672 11.3547 21.8739 8.99676C21.1484 6.82022 21.9102 6.23981 24.1956 5.9496C25.1387 5.84078 26.1545 5.26036 26.8074 4.57113C33.0831 -1.77712 38.9235 -0.398644 45.5619 2.17693C48.5728 3.33775 49.2983 6.38491 49.2983 9.28697C49.2983 12.1527 48.7905 15.0548 48.464 17.9206C48.3552 18.8275 48.2101 19.6981 48.065 20.7501C48.6817 20.8952 49.2621 21.0403 49.8425 21.1854C55.5015 22.6364 60.8703 24.8492 65.695 28.1141C67.4725 29.3111 69.3225 30.9798 70.2294 32.8662C73.1315 38.9605 75.5982 45.2725 78.1738 51.4756C78.8268 52.9992 77.7022 53.8698 76.6139 54.2688C73.3491 55.5022 70.048 56.6993 66.7107 57.6062C65.1871 58.0052 64.6792 58.5856 64.6067 60.1092C64.389 64.3897 64.0263 68.634 63.9537 72.9871C68.3068 69.686 73.0952 66.7839 72.6236 60.2906C72.5511 59.4925 72.4422 58.6582 72.6962 57.9689C72.9138 57.4248 73.6031 56.8444 74.1472 56.7719C74.5462 56.7356 75.3806 57.4974 75.4168 57.9327C75.6345 62.3583 75.5257 66.7114 72.0069 70.0488C69.8667 72.0802 67.6176 74.0391 65.3322 75.8891C64.2802 76.7235 63.8086 77.5215 63.8449 78.9C63.9537 81.8021 63.8812 84.7041 63.8812 87.6062C63.8812 88.7307 63.8812 90.0004 62.3576 89.9278C60.9428 89.8916 60.9791 88.6945 60.9791 87.6425C60.834 76.2882 61.0517 64.9339 62.1399 53.6159C62.4664 50.1334 62.3576 46.6147 62.4301 43.0959C62.4664 41.9714 62.3939 40.7017 63.9174 40.738C65.3322 40.738 65.3685 41.9351 65.3322 43.0234C65.2597 46.5421 65.1871 50.0246 65.0783 53.5433C65.1145 53.9786 65.1145 54.3777 65.1145 55.2483ZM4.78807 52.2737C4.28021 53.9423 3.80862 55.4296 3.37331 56.917C2.28504 60.6896 3.26449 63.8093 6.27537 66.3124C8.63329 68.2712 10.9549 70.339 13.4217 72.189C16.9041 74.8009 20.5317 77.2313 22.9985 80.9315C23.3249 81.403 23.8328 81.8384 24.3044 82.1648C26.2996 83.5433 28.2222 82.8178 28.8751 80.4599C29.3104 78.8637 28.8389 77.6304 27.8231 76.4696C23.5426 71.4272 18.7179 66.9653 13.0589 63.4829C9.90294 61.5602 9.86666 61.5965 11.3177 58.1866C11.354 58.0778 11.3177 57.9689 11.2814 57.8601C9.2137 56.0101 7.10971 54.2326 4.78807 52.2737ZM24.9211 9.57717C25.7191 10.9919 26.5898 12.5881 27.4241 14.1479C31.1242 12.5881 31.9586 12.8057 34.2439 15.5627C34.5341 15.9254 35.1508 16.2882 35.5861 16.2519C38.1254 16.1793 40.6647 16.1793 43.1315 15.744C45.8884 15.2725 46.2512 14.5832 46.4326 11.8263C46.7953 6.27608 45.8522 4.97016 40.5559 3.48286C36.2391 2.24948 32.5027 2.90244 29.2742 6.23981C28.1133 7.47318 26.626 8.30752 24.9211 9.57717ZM45.3806 18.8275C41.7167 18.9363 38.1617 19.0451 34.643 19.1177C33.1919 19.154 32.1399 18.5735 31.6321 17.05C31.487 16.6147 30.5438 16.0705 30.2173 16.2156C29.6732 16.4696 29.0565 17.1588 29.0202 17.7029C28.9477 18.6824 29.2379 19.7344 29.4918 20.7138C29.782 21.9835 30.435 22.3099 31.8497 22.0197C35.695 21.2942 39.5765 20.7501 43.458 20.4236C44.9453 20.3148 45.5982 19.9883 45.3806 18.8275Z" fill="#30B09B"/>
<path id="Vector_2" d="M37.7986 74.3293C37.2545 73.8577 36.6015 73.5675 36.4927 73.0959C36.3476 72.6243 36.5653 71.7537 36.928 71.536C38.9595 70.3752 41.0635 69.3232 43.2037 68.3801C43.5665 68.1987 44.4371 68.5614 44.691 68.9605C44.945 69.3232 44.945 70.3752 44.691 70.5203C42.4782 71.8625 40.1928 73.0596 37.7986 74.3293Z" fill="#30B09B"/>
<path id="Vector_3" d="M43.7482 84.3781C41.3177 83.7614 39.25 83.3261 37.2911 82.6369C36.8558 82.4918 36.348 81.4035 36.4931 80.9682C36.6382 80.4966 37.6176 79.9162 38.1255 80.025C40.0844 80.3515 42.007 80.8594 43.8933 81.4761C44.4012 81.6574 44.9453 82.528 44.909 83.0722C44.8727 83.5438 44.111 84.0154 43.7482 84.3781Z" fill="#30B09B"/>
<path id="Vector_4" d="M71.0273 26.2644C70.7371 26.0104 70.1929 25.7928 69.939 25.3938C69.7576 25.0673 69.7214 24.3055 69.939 24.0878C71.4989 22.4192 73.095 20.7867 74.7999 19.2632C75.0902 19.0092 76.1059 19.1906 76.5049 19.5171C76.7951 19.771 76.9402 20.7867 76.6863 21.077C75.1264 22.8182 73.4215 24.4506 71.7528 26.083C71.644 26.1555 71.39 26.1555 71.0273 26.2644Z" fill="#30B09B"/>
<path id="Vector_5" d="M8.74249 26.0468C8.70621 27.3165 7.36401 28.1145 6.52967 27.3527C4.86099 25.8654 3.30113 24.2693 1.81383 22.6369C1.52362 22.3104 1.63245 21.2584 1.95893 20.9319C2.28541 20.6055 3.33741 20.4603 3.66389 20.7143C5.33257 22.2016 6.85615 23.7977 8.416 25.3938C8.63366 25.5752 8.70621 25.9017 8.74249 26.0468Z" fill="#30B09B"/>
<path id="Vector_6" d="M37.7267 60.6534C37.763 61.8867 32.8658 66.9291 31.9226 66.784C31.4511 66.7114 30.8706 66.3486 30.6893 65.9496C30.5079 65.5506 30.6167 64.7888 30.9069 64.4986C32.3217 62.9387 33.809 61.4514 35.3688 60.0367C35.6953 59.7465 36.4208 59.6376 36.8199 59.7827C37.2914 59.8916 37.5454 60.472 37.7267 60.6534Z" fill="#30B09B"/>
<path id="Vector_7" d="M64.0625 21.8383C62.7928 21.7657 62.1036 20.6774 62.6477 19.7343C63.5546 18.1744 64.534 16.6508 65.6586 15.2724C65.9851 14.8733 66.892 14.9459 67.5087 14.8008C67.6538 15.49 68.1253 16.3244 67.8714 16.7959C67.0371 18.3921 65.9488 19.8431 64.8968 21.2941C64.7154 21.6206 64.2438 21.7294 64.0625 21.8383Z" fill="#30B09B"/>
<path id="Vector_8" d="M16.3235 20.2789C15.8157 20.8955 15.5617 21.5122 15.1627 21.6211C14.6911 21.7662 13.8205 21.6573 13.5666 21.3309C12.4057 19.8073 11.3175 18.2111 10.3743 16.5425C10.1566 16.1797 10.4469 15.3454 10.7733 14.9826C11.0273 14.6924 12.043 14.5473 12.1881 14.765C13.6391 16.5425 14.9088 18.3925 16.3235 20.2789Z" fill="#30B09B"/>
</g>
</g>
<defs>
<clipPath id="clip0_6_4080">
<rect width="78.3918" height="90" fill="white"/>
</clipPath>
</defs>
</svg>
