<svg width="94" height="80" viewBox="0 0 94 80" fill="none" xmlns="http://www.w3.org/2000/svg">
<g id="Frame" clip-path="url(#clip0_6_4104)">
<g id="Group">
<path id="Vector" d="M40.8597 64.3582C40.8597 66.7337 41.1886 69.1458 40.7866 71.4847C40.3846 73.7506 39.544 76.053 38.4111 78.0265C37.2051 80.1097 34.8296 80.5848 32.8195 79.2326C30.8826 77.9169 29.0552 76.3088 27.6299 74.4815C22.9885 68.6707 20.8323 61.8365 20.9054 54.4541C20.9419 49.4473 19.5897 45.0252 17.3239 40.7127C15.058 36.5099 13.3038 32.1608 13.0479 27.4098C12.3535 15.6419 20.3207 7.82095 32.0886 9.06353C36.0721 9.50209 40.0191 10.7812 43.8931 11.9872C45.5742 12.5354 46.8168 12.6451 48.4614 11.9141C53.4317 9.75791 58.5847 8.47879 64.0667 9.06353C74.6286 10.1965 80.878 18.2732 79.0141 28.762C78.4294 31.9416 77.6254 35.3038 76.0904 38.0813C72.7281 44.1846 71.3028 50.5437 71.1201 57.4509C70.9374 64.4678 67.9771 70.6442 63.4454 75.9799C62.349 77.259 60.9602 78.3554 59.5349 79.196C57.3056 80.5117 54.8935 80.0366 53.6509 77.7707C52.5546 75.8337 51.6774 73.5313 51.4947 71.3385C51.1658 66.9895 51.5313 62.5674 51.3485 58.1818C51.2754 56.2814 50.8003 54.3445 50.1059 52.5537C49.4481 50.836 48.0228 49.7031 46.0128 49.7031C44.0027 49.7396 42.6505 50.9091 41.9927 52.6268C41.4079 54.1983 41.0424 55.8794 40.8963 57.5606C40.7135 59.863 40.8597 62.1289 40.8597 64.3582ZM38.6669 64.2851C38.6669 61.9827 38.4842 59.6437 38.74 57.3413C38.9228 55.3678 39.3613 53.3577 40.1288 51.567C41.1521 49.1549 43.1256 47.5834 45.9031 47.5103C48.7903 47.4372 50.91 48.9356 51.9698 51.3842C52.8469 53.4674 53.3951 55.8063 53.5413 58.0357C53.7971 62.275 53.4682 66.551 53.6875 70.8269C53.7606 72.5811 54.3088 74.4084 55.0397 76.053C55.8437 77.8073 57.4152 78.1362 58.9867 77.0032C60.1562 76.1627 61.2891 75.1759 62.2028 74.043C66.2594 69.1092 68.8177 63.4445 68.9273 57.0489C69.037 49.9955 70.6085 43.5268 74.0438 37.3504C75.4691 34.7556 76.2731 31.6857 76.8213 28.7255C78.5756 19.3331 73.386 12.3527 63.8839 11.2563C58.2558 10.5985 53.0297 12.17 48.0228 14.5089C46.6706 15.1302 45.5742 15.1668 44.2585 14.5089C40.5308 12.6816 36.5472 11.5121 32.381 11.1467C22.3673 10.3427 14.1443 16.0073 15.2407 27.5925C15.6427 31.7954 17.1411 35.6327 19.0781 39.2874C21.5632 43.9653 23.1347 48.7894 23.0616 54.2348C22.952 61.5076 25.3641 68.1225 29.9324 73.8237C30.846 74.9566 31.9059 75.9799 33.0753 76.8205C34.8661 78.1362 36.328 77.8072 37.2416 75.8337C37.936 74.3353 38.4111 72.6177 38.5573 70.9731C38.8131 68.8168 38.6669 66.551 38.6669 64.2851Z" fill="#30B09B"/>
<path id="Vector_2" d="M7.67515 15.6053C7.12696 15.0206 6.57876 14.6551 6.39603 14.1434C5.40928 11.439 3.6916 9.6117 0.914073 8.73458C0.512063 8.5884 -0.0361328 8.00365 -0.0361328 7.60164C-0.0361328 7.19963 0.475516 6.57835 0.877526 6.43216C3.65505 5.48196 5.51892 3.69118 6.46912 0.913659C6.65185 0.475103 7.27314 0 7.67515 0C8.07716 0 8.6619 0.511649 8.80809 0.950206C9.75829 3.65464 11.5491 5.44541 14.29 6.35907C14.7286 6.50525 15.2768 7.12654 15.2402 7.49201C15.1672 7.96711 14.6921 8.62494 14.2535 8.77113C11.5125 9.72133 9.75829 11.5487 8.80809 14.2531C8.6619 14.6916 8.1868 15.0206 7.67515 15.6053ZM10.6354 6.98036C10.5989 7.41891 10.5258 7.89402 10.4892 8.33257C9.31974 7.09 8.1868 5.81087 7.01732 4.5683C7.45587 4.5683 7.89443 4.60484 8.29644 4.60484C7.12696 5.84742 5.95747 7.09 4.78799 8.36912C4.78799 7.82092 4.78799 7.27273 4.78799 6.76108C6.06711 7.96711 7.30969 9.20969 8.58881 10.4157C8.04061 10.3792 7.45587 10.3061 6.90768 10.2695C8.15025 9.20969 9.39283 8.07675 10.6354 6.98036Z" fill="#30B09B"/>
<path id="Vector_3" d="M93.7786 50.0317C93.1573 50.5799 92.7918 51.1281 92.2802 51.2742C89.6123 52.1879 87.8946 53.9421 86.9444 56.5735C86.7617 57.0486 86.0673 57.743 85.7384 57.6699C85.2267 57.5602 84.5689 56.9755 84.3861 56.4638C83.509 53.9421 81.901 52.2244 79.3427 51.3473C78.8311 51.1646 78.1367 50.4702 78.1733 50.0317C78.2098 49.5566 78.8676 48.9353 79.4158 48.716C81.8644 47.8389 83.4725 46.1943 84.3861 43.7457C84.6054 43.1975 85.2998 42.5762 85.848 42.4666C86.1769 42.3935 86.9078 43.1975 87.1271 43.7457C88.0042 46.2308 89.6123 47.8389 92.0609 48.716C92.6091 48.9353 93.0476 49.4835 93.7786 50.0317ZM86.3962 52.9554C85.9576 52.9188 85.4825 52.8823 85.044 52.8823C86.2135 51.6763 87.4195 50.4337 88.589 49.2276C88.589 49.7393 88.5524 50.2509 88.5524 50.726C87.4195 49.52 86.2866 48.2774 85.1536 47.0714C85.5556 47.108 85.9576 47.1445 86.3596 47.1811C85.1536 48.3505 83.911 49.5566 82.705 50.726C82.7416 50.324 82.7781 49.8855 82.8512 49.4835C84.0207 50.6164 85.1902 51.7859 86.3962 52.9554Z" fill="#30B09B"/>
<path id="Vector_4" d="M67.0263 35.2675C66.6243 35.7791 66.4781 36.1081 66.2223 36.3273C65.9664 36.5466 65.601 36.7293 65.2721 36.839C62.0194 37.8623 59.9363 40.0185 58.8033 43.198C58.5841 43.8559 57.8531 44.2944 57.3415 44.8426C56.8298 44.2944 56.0989 43.8193 55.8796 43.1615C54.7101 39.982 52.6635 37.8257 49.4109 36.7659C48.8262 36.5832 48.3876 35.8522 47.876 35.4137C48.3511 34.9386 48.7531 34.2442 49.3378 34.0249C52.6636 32.8554 54.8198 30.6261 55.9893 27.3004C56.172 26.7522 56.9029 25.9482 57.2318 26.0213C57.78 26.1309 58.4744 26.7522 58.6937 27.3369C59.8266 30.6992 62.0194 32.8554 65.3817 33.9884C65.9299 34.2442 66.405 34.8289 67.0263 35.2675ZM57.5973 30.2606C55.77 32.088 53.9792 33.8787 52.1519 35.706C54.4178 36.4735 56.2086 38.2643 57.3049 41.4438C58.4013 38.2277 60.1921 36.4735 63.262 35.4137C60.2287 34.2807 58.4013 32.5631 57.5973 30.2606Z" fill="#30B09B"/>
<path id="Vector_5" d="M59.461 17.4688C65.6739 17.8342 70.5711 22.7314 70.7904 28.1768C70.8269 29.0174 70.9731 30.1138 69.7306 30.0042C69.292 29.9676 68.7073 28.9443 68.6342 28.3596C68.0494 23.6085 64.7603 20.3194 59.9361 19.6981C59.2783 19.625 58.6936 18.8941 58.0723 18.4555C58.6936 18.0169 59.3148 17.5784 59.461 17.4688Z" fill="#30B09B"/>
<path id="Vector_6" d="M21.417 28.835C21.5632 22.6952 26.972 17.4325 32.5271 17.5056C33.0753 17.5056 33.5869 18.1635 34.1351 18.4924C33.66 18.8944 33.258 19.5157 32.7464 19.6253C26.7893 20.7217 24.6696 22.8414 23.6098 28.7619C23.5367 29.237 22.8423 29.639 22.4403 30.0776C22.0017 29.5294 21.5632 29.0177 21.417 28.835Z" fill="#30B09B"/>
<path id="Vector_7" d="M38.6666 42.5037C38.0087 42.5037 37.3144 42.6133 36.6565 42.4671C36.218 42.3575 35.6332 41.8824 35.5967 41.5169C35.5967 41.1515 36.1083 40.4205 36.4738 40.384C37.9356 40.2743 39.3975 40.2743 40.8228 40.384C41.1517 40.4205 41.6999 41.1149 41.6999 41.5169C41.6999 41.8458 41.0786 42.3575 40.6401 42.4306C40.0188 42.6133 39.3244 42.5037 38.6666 42.5037Z" fill="#30B09B"/>
<path id="Vector_8" d="M34.3544 46.8154C34.3544 47.4367 34.464 48.058 34.3178 48.6427C34.1717 49.1178 33.6966 49.5199 33.3676 49.9584C32.9656 49.5199 32.3078 49.1178 32.2347 48.6062C32.052 47.4002 32.052 46.1576 32.2347 44.9881C32.3078 44.513 33.0022 44.111 33.4042 43.709C33.7331 44.1475 34.1717 44.5496 34.3178 45.0247C34.5006 45.5728 34.3544 46.2307 34.3544 46.8154Z" fill="#30B09B"/>
<path id="Vector_9" d="M27.885 42.4667C27.154 42.4667 26.4231 42.5763 25.6922 42.4301C25.3267 42.357 24.8151 41.8819 24.7785 41.553C24.742 41.1876 25.1805 40.4932 25.4363 40.4566C27.0078 40.347 28.5793 40.347 30.1508 40.4201C30.4432 40.4201 30.8818 41.1145 30.8818 41.4799C30.8818 41.8088 30.4067 42.357 30.0412 42.4301C29.3834 42.5763 28.6159 42.4667 27.885 42.4667Z" fill="#30B09B"/>
<path id="Vector_10" d="M34.3539 36.0711C34.3539 36.729 34.4636 37.4234 34.3174 38.0446C34.2077 38.4466 33.6961 39.0314 33.3306 39.0314C32.9652 39.0314 32.3073 38.4832 32.2708 38.1177C32.1246 36.729 32.1246 35.3402 32.2708 33.9514C32.3073 33.586 32.9286 33.2571 33.2575 32.8916C33.623 33.2936 34.1712 33.6225 34.3174 34.0611C34.5001 34.7189 34.3539 35.4133 34.3539 36.0711Z" fill="#30B09B"/>
</g>
</g>
<defs>
<clipPath id="clip0_6_4104">
<rect width="93.778" height="80" fill="white"/>
</clipPath>
</defs>
</svg>
