<svg width="99" height="90" viewBox="0 0 99 90" fill="none" xmlns="http://www.w3.org/2000/svg">
<g id="Frame" clip-path="url(#clip0_6_4121)">
<path id="Vector" d="M49.5438 38.5602C47.2618 40.5327 44.9026 42.4665 42.7367 44.5164C42.2726 44.9418 42.1179 45.87 42.0792 46.5662C41.8085 52.8705 41.6924 59.1747 41.383 65.479C41.3057 67.3354 40.8416 69.1532 40.4548 71.0097C38.753 78.9384 33.8411 83.5022 25.9898 85.2426C19.7242 86.635 13.4973 88.2594 7.23176 89.8064C3.20941 90.812 -0.155434 88.2594 -0.000728391 84.121C0.463389 71.4351 2.39721 59.02 6.9997 47.1077C7.27044 46.4502 7.46382 45.7153 7.92794 45.2125C8.23735 44.8645 9.04955 44.5937 9.39764 44.7484C9.86176 44.9805 10.2098 45.638 10.3645 46.1795C10.4806 46.5275 10.1712 47.0303 10.0165 47.4558C5.37529 59.136 3.44147 71.3578 2.97736 83.8889C2.9 86.5189 4.25368 87.5245 6.76764 86.867C12.4918 85.436 18.2545 84.005 24.0173 82.6513C33.5704 80.4081 37.0513 76.6565 38.3276 66.9874C39.6813 56.6994 39.2172 46.4115 38.8304 36.0849C38.6757 31.8692 38.0182 27.6148 37.5541 23.399C37.4767 22.8189 37.2833 22.2774 37.1286 21.6973C36.7805 20.0342 35.9683 19.6088 34.2279 20.1502C28.3878 22.0454 23.8239 25.681 20.111 30.2835C17.597 33.4162 15.5085 36.9358 13.304 40.3393C12.6851 41.2676 12.2597 42.5439 10.8673 41.8477C9.32029 41.0742 10.2098 39.9139 10.7513 38.9083C14.0388 32.7201 18.0998 27.112 23.6692 22.7029C26.9954 20.0729 30.5923 18.023 34.7694 17.0948C37.0126 16.592 38.521 17.0948 39.1785 19.338C40.1841 22.5868 40.6482 25.9517 41.3444 29.2779C41.4604 29.7807 41.4217 30.2834 41.4991 31.0183C43.1621 29.5873 43.5876 27.9629 43.5876 26.1064C43.5876 19.4541 43.5489 12.8404 43.5876 6.18805C43.6263 2.24305 46.4496 -0.30959 50.1239 0.0384975C52.8699 0.309232 55.1132 2.43643 55.3065 5.14378C55.4612 7.27099 55.4612 9.39819 55.3065 11.5254C55.2679 12.1055 54.417 12.647 53.9142 13.2272C53.4501 12.647 52.6765 12.1055 52.5992 11.448C52.4058 10.0557 52.5218 8.62466 52.5218 7.19363C52.5218 4.37026 51.4776 2.90055 49.5051 2.86188C47.4552 2.8232 46.411 4.33158 46.411 7.30966C46.411 13.4979 46.3336 19.6861 46.4496 25.8743C46.4883 28.6977 45.7921 31.289 43.7423 33.0681C41.0349 35.4274 41.8471 38.1734 41.9632 40.9195C42.1566 41.0742 42.3499 41.2289 42.5433 41.3836C44.2064 39.5658 45.9468 37.748 47.5326 35.8529C49.2343 33.8804 49.6211 33.919 51.3615 35.9302C52.9473 37.7867 54.649 39.5271 56.6215 41.1128C56.7762 38.4055 58.0912 35.7755 55.4612 33.4549C53.218 31.4437 52.2511 28.7364 52.4445 25.6036C52.5992 23.0896 52.3671 20.5757 52.5605 18.0617C52.5992 17.4042 53.4501 16.7854 53.9529 16.1666C54.417 16.8241 55.2679 17.4429 55.3065 18.1004C55.4612 20.8464 55.3839 23.6311 55.3839 26.4158C55.3839 28.1562 56.0027 29.5873 57.3564 31.1343C57.7045 28.543 57.9752 26.2611 58.362 24.0179C58.5553 22.8189 58.8261 21.6199 59.2515 20.4596C60.4118 17.0948 61.9202 16.3213 65.285 17.3269C72.7109 19.5314 78.203 24.4433 82.7668 30.3995C89.9219 39.6818 94.0216 50.3565 96.1875 61.7274C97.5412 68.8438 98.2373 76.115 98.8948 83.3475C99.359 88.4914 95.9554 91.0054 91.0049 89.5357C89.5352 89.1103 88.0268 88.6848 86.5571 88.2594C85.5128 87.95 84.1978 87.6792 84.7006 86.1709C85.1647 84.6625 86.4024 85.2039 87.4466 85.5134C89.1871 86.0162 90.8888 86.5576 92.6293 87.0217C94.5631 87.5245 96.0715 86.4416 95.9941 84.4691C95.2593 66.6006 92.1265 49.3896 81.8772 34.1898C78.1643 28.659 73.6005 23.9018 67.3349 21.2332C62.2296 19.0673 62.307 18.9126 61.3014 24.3273C60.5665 28.2336 60.2571 32.2559 60.1411 36.2396C59.793 46.4889 59.2902 56.7381 60.6826 66.9487C60.9146 68.6504 61.3401 70.3522 61.8042 72.0153C63.1965 77.0819 66.4067 80.4081 71.5506 81.7617C74.2966 82.4966 77.0813 83.0381 79.8274 83.6182C80.9103 83.8503 81.9546 84.121 81.6452 85.552C81.3744 86.8284 80.3689 86.7123 79.3246 86.5189C77.1974 86.0548 75.0315 85.6681 72.9043 85.2426C64.7822 83.5409 59.9864 78.5516 58.362 70.3909C56.8149 62.733 56.8149 55.0364 56.9696 47.3011C57.0083 45.638 56.5442 44.6324 55.1905 43.6268C53.1793 42.0798 51.4389 40.262 49.5438 38.5602Z" fill="#30B09B"/>
<path id="Vector_2" d="M77.0436 53.3735C76.3475 54.3017 75.7673 55.1913 75.1098 56.0422C74.7231 56.5063 74.1429 57.1638 73.7561 57.0864C73.2147 57.0091 72.5185 56.3903 72.3638 55.8875C71.745 53.9923 70.8941 53.6442 68.9989 54.5338C68.4962 54.7659 67.5679 54.6498 67.1425 54.3404C66.8331 54.1084 66.9104 53.2188 66.9878 52.6387C67.1038 51.6331 67.3359 50.6662 67.5292 49.5445C66.5623 49.4285 66.0595 49.4672 65.7501 49.2738C65.2087 48.9257 64.4738 48.3842 64.4351 47.9201C64.3965 47.456 65.0926 46.6825 65.6341 46.4891C67.6066 45.7542 67.9547 44.942 67.0651 43.0856C66.8331 42.5828 66.8717 41.5772 67.2198 41.2291C67.5679 40.9197 68.5735 40.9197 69.0763 41.1904C70.7394 42.0413 71.7837 41.6159 72.4025 39.7594C72.5572 39.2566 73.176 38.6378 73.6401 38.5604C74.1042 38.5218 75.0711 39.1019 75.0325 39.4113C74.9938 41.1518 76.3088 41.4225 77.4691 41.8866C77.4691 41.6932 77.4691 41.5385 77.4691 41.3451C78.4747 41.3065 79.4803 41.3065 80.4472 41.2678C80.3698 42.2347 80.2925 43.1629 80.2538 44.1298C80.1378 45.3288 80.4472 46.5278 82.1489 46.5665C82.497 46.5665 83.1932 47.572 83.0772 47.9201C82.9225 48.4616 82.3036 49.0804 81.7622 49.2351C80.0991 49.7766 79.5963 50.9369 80.4085 52.4839C80.6792 52.9867 80.7179 54.1083 80.4472 54.3017C79.9444 54.6111 79.0935 54.5338 78.436 54.4564C78.0879 54.3791 77.8172 53.9923 77.0436 53.3735ZM77.7398 47.8428C77.7785 45.5609 76.0381 43.8204 73.7561 43.8204C71.5129 43.8204 69.6951 45.6382 69.7338 47.8428C69.7725 49.97 71.5129 51.7491 73.6401 51.8264C75.8447 51.8651 77.7011 50.086 77.7398 47.8428Z" fill="#30B09B"/>
<path id="Vector_3" d="M17.56 72.634C16.9412 73.1368 16.6318 73.5622 16.245 73.6396C15.6262 73.7556 14.7367 73.8716 14.3886 73.5236C14.0405 73.2141 14.0018 72.2085 14.2339 71.7058C15.1234 69.9266 14.7367 68.9984 12.8415 68.3409C12.3 68.1475 11.5265 67.2966 11.6425 66.9872C11.7972 66.4071 12.4934 65.7496 13.0736 65.5562C14.5819 65.0921 15.1234 63.7771 14.3886 62.3847C14.1178 61.8433 14.3112 61.0311 14.3112 60.3349C15.0074 60.3349 15.8196 60.1415 16.3611 60.4122C17.7921 61.1471 19.0297 60.6443 19.5325 59.2133C19.7646 58.5558 20.4994 58.1303 21.0409 57.5889C21.505 58.1303 22.1625 58.5945 22.3559 59.1746C22.82 60.6056 24.0577 61.1084 25.4887 60.4122C26.0688 60.1415 26.881 60.3349 27.5772 60.2962C27.5772 60.9924 27.8093 61.8046 27.5385 62.3461C26.765 63.8931 27.2291 65.0147 28.8922 65.5562C29.4724 65.7496 30.1299 66.4458 30.2846 67.0259C30.3619 67.374 29.5497 68.1475 29.0082 68.3409C27.1905 68.9597 26.8037 69.9653 27.6159 71.6671C27.8866 72.1699 27.8866 73.2915 27.5772 73.4849C27.0744 73.7943 26.1462 73.833 25.566 73.5622C24.135 72.8274 22.7813 73.3302 22.3172 74.7999C22.1238 75.4187 21.4277 75.8441 20.9636 76.3856C20.4608 75.8441 19.958 75.3027 19.4552 74.7612C18.875 74.0263 18.2562 73.3688 17.56 72.634ZM20.8862 70.9322C23.1294 70.9709 24.9859 69.1531 24.9859 66.9872C24.9859 64.8214 23.1294 62.9262 20.9249 62.9649C18.7977 62.9649 17.0186 64.7053 16.9799 66.8712C16.9412 69.1144 18.643 70.8936 20.8862 70.9322Z" fill="#30B09B"/>
<path id="Vector_4" d="M84.6244 68.4187C81.8783 68.4187 79.5964 66.0981 79.6738 63.3521C79.7511 60.6447 81.9557 58.5175 84.663 58.5562C87.4477 58.5562 89.691 60.8768 89.6136 63.6228C89.5363 66.2528 87.293 68.4187 84.6244 68.4187ZM84.2763 65.7887C84.5857 65.7887 84.8564 65.75 85.1658 65.75C85.6686 64.9378 86.5582 64.0482 86.5195 63.3134C86.4422 62.6172 85.3592 61.6503 84.5857 61.5343C83.3867 61.3409 82.4585 62.3465 82.7292 63.5841C82.9226 64.3963 83.7348 65.0538 84.2763 65.7887Z" fill="#30B09B"/>
<path id="Vector_5" d="M24.2891 49.8929C24.2891 47.1082 26.5323 44.9423 29.3557 44.981C32.063 45.0583 34.1902 47.2242 34.1515 49.9702C34.1515 52.6776 31.9857 54.8435 29.2783 54.8821C26.5323 54.9208 24.2891 52.6776 24.2891 49.8929ZM31.5602 50.3957C31.5602 50.1249 31.5602 49.8155 31.5602 49.5448C30.8254 49.0033 30.1292 48.1911 29.317 48.0364C28.0794 47.8044 27.0738 48.7713 27.3058 49.9702C27.4219 50.7438 28.4661 51.8267 29.1623 51.8654C29.9358 51.8654 30.748 50.8985 31.5602 50.3957Z" fill="#30B09B"/>
<path id="Vector_6" d="M27.7319 30.2451C30.478 30.2838 32.6438 32.4497 32.6438 35.157C32.6438 37.903 30.478 40.0689 27.7319 40.1076C24.9086 40.1463 22.704 37.903 22.7427 35.0797C22.82 32.3723 24.9859 30.2451 27.7319 30.2451ZM27.3839 37.555C27.6546 37.555 27.964 37.5163 28.2347 37.5163C28.7375 36.7041 29.6658 35.8145 29.5884 35.041C29.5111 34.3448 28.3894 33.3779 27.6159 33.2619C26.4169 33.1072 25.4887 34.1128 25.7594 35.3504C25.9528 36.1626 26.8037 36.8201 27.3839 37.555Z" fill="#30B09B"/>
<path id="Vector_7" d="M77.4309 73.0988C77.3922 75.8448 75.265 77.972 72.4803 77.9333C69.6569 77.9333 67.4911 75.6901 67.5684 72.8281C67.6458 70.082 69.8116 68.0322 72.5963 68.0709C75.381 68.1482 77.4696 70.3141 77.4309 73.0988ZM72.0549 75.342C72.3256 75.342 72.5963 75.342 72.8671 75.342C73.4086 74.6072 74.2981 73.911 74.4528 73.0988C74.6849 71.8611 73.718 70.8556 72.519 71.0489C71.7455 71.165 70.6239 72.2092 70.5852 72.9054C70.5465 73.6789 71.5134 74.5298 72.0549 75.342Z" fill="#30B09B"/>
</g>
<defs>
<clipPath id="clip0_6_4121">
<rect width="98.9342" height="90" fill="white"/>
</clipPath>
</defs>
</svg>
