<svg width="91" height="90" viewBox="0 0 91 90" fill="none" xmlns="http://www.w3.org/2000/svg">
<g id="Frame" clip-path="url(#clip0_6_4071)">
<g id="Group">
<path id="Vector" d="M46.8151 89.9997C39.9439 89.807 33.4259 88.5869 27.4216 85.1513C24.3392 83.3853 22.1237 80.6882 19.9403 77.959C19.1055 76.9315 18.3991 75.7114 16.7295 76.0646C15.0598 76.3857 14.2892 77.6058 14.0002 79.0507C13.647 80.7524 13.5828 82.5184 13.3581 84.2523C13.2617 84.9908 13.2617 85.8577 12.8443 86.3714C12.4911 86.8209 11.5279 87.1741 10.9499 87.0457C10.4041 86.8852 9.63349 86.1146 9.60138 85.5687C9.37662 82.2294 9.63349 78.9223 11.2389 75.9041C13.5507 71.5373 18.7523 71.0236 22.0595 74.6839C22.3484 75.005 22.6374 75.3261 22.8622 75.6793C27.4216 82.4542 34.2286 85.0229 41.9667 85.8577C49.4159 86.6283 56.7045 85.954 63.6399 82.9679C75.5843 77.8306 82.616 68.6476 85.3131 56.0289C86.9507 48.2587 86.9506 40.5205 84.382 32.943C82.3591 27.0029 79.0199 22.0582 72.9835 19.6179C70.8643 18.751 68.4883 18.3978 66.1765 18.0767C64.4105 17.852 62.8051 17.563 61.4886 16.3429C57.7641 12.8431 54.8422 8.8295 53.4615 3.82058C53.2689 3.17841 53.2368 2.47203 53.2047 1.76564C53.1726 0.673953 53.7505 0.0317842 54.8101 -0.0324327C55.8376 -0.0966497 56.5439 0.384977 56.7366 1.47666C57.6035 6.19661 60.3006 9.88908 63.6078 13.1641C64.1536 13.71 65.0848 14.1595 65.8233 14.1916C76.7723 14.5769 84.7031 21.4481 87.8176 31.5623C92.377 46.4606 90.6431 60.6847 81.5243 73.4959C75.2311 82.3258 66.3049 87.3668 55.5486 89.0043C52.6588 89.4538 49.737 89.6786 46.8151 89.9997Z" fill="#30B09B"/>
<path id="Vector_2" d="M45.498 83.0961C40.2001 83.0319 34.8059 82.0365 29.8933 79.2752C26.554 77.4129 24.1459 74.78 23.6321 70.8628C22.9579 65.5007 26.3292 61.0376 32.1088 59.8496C35.0306 59.2395 38.0488 59.1111 41.0028 58.8863C48.452 58.3084 55.7406 57.1525 62.387 53.46C66.4006 51.2445 69.7399 48.3548 72.2764 44.5339C72.6618 43.9559 73.0792 43.378 73.5608 42.8963C75.5515 40.9377 78.0881 41.0983 79.533 43.4422C81.62 46.7493 82.4227 50.4739 81.909 54.3269C80.3999 65.886 72.9828 73.0141 63.5108 78.4404C58.0845 81.6191 52.0802 82.9998 45.498 83.0961ZM76.2258 45.2081C75.9368 45.7219 75.7763 45.9787 75.6157 46.2356C71.3453 52.9142 65.0842 56.9919 57.7313 59.5606C51.6628 61.6798 45.3696 62.2256 39.0121 62.7715C36.315 62.9962 33.5215 63.2531 31.0492 64.1842C26.9393 65.7254 26.0082 70.3169 28.8337 73.6562C29.6685 74.6516 30.7923 75.4864 31.9482 76.1286C35.8655 78.2798 40.1359 79.2431 44.5347 79.3073C55.9011 79.5 65.1484 74.8763 72.5333 66.4318C76.2258 62.2256 78.5055 57.313 78.2165 51.5335C78.1202 49.4465 77.6064 47.4236 76.2258 45.2081Z" fill="#30B09B"/>
<path id="Vector_3" d="M51.1171 23.2464C45.6587 18.4623 43.3469 12.0406 42.1267 5.04092C41.9341 3.85291 42.3836 2.95387 43.5395 2.72911C44.8238 2.47225 45.466 3.24285 45.8192 4.43086C46.7182 7.54538 47.521 10.692 48.6769 13.7102C49.7043 16.4394 51.5666 18.6549 53.7821 20.6135C54.5206 21.2878 55.3233 22.8611 55.0022 23.5996C51.1171 32.8147 48.9337 42.9289 41.0029 50.057C38.5627 52.2404 36.0582 54.2953 33.0079 55.6117C28.9623 57.3456 25.1093 59.3363 21.7379 62.2261C19.6829 63.9921 17.2106 64.6984 14.5135 64.9232C8.79816 65.4048 5.33045 68.6157 4.43141 74.2989C3.98189 77.1886 3.91768 80.1426 3.66081 83.0645C3.6287 83.6424 3.75713 84.3809 3.46816 84.7662C3.05075 85.3442 2.31225 86.0506 1.7343 86.0506C1.15635 86.0506 0.0967705 85.2157 0.0646621 84.7341C-0.256422 77.5418 -0.063772 70.4459 5.39467 64.7948C7.77069 62.3224 10.8852 61.327 14.2245 61.1665C16.4721 61.0702 18.3665 60.2675 20.0682 58.8226C22.958 56.3823 26.1367 54.5201 29.6365 53.0431C38.1774 49.4469 43.5395 42.8647 46.8788 34.4202C48.2916 30.7598 49.6722 27.0673 51.1171 23.2464Z" fill="#30B09B"/>
</g>
</g>
<defs>
<clipPath id="clip0_6_4071">
<rect width="90.2569" height="90" fill="white"/>
</clipPath>
</defs>
</svg>
